<svg width="328" height="191" viewBox="0 0 328 191" fill="none" xmlns="http://www.w3.org/2000/svg">
<rect width="328" height="191" rx="12" fill="#F7F7F7"/>
<path d="M42.9101 45.1151C45.5326 42.9403 48.8326 41.75 52.2396 41.75H85.734C89.0242 41.75 92.2181 42.8602 94.799 44.9008L111.45 58.0664C114.955 60.8384 117 65.0618 117 69.531V151.974C117 160.046 110.456 166.59 102.385 166.59H36.6154C28.5435 166.59 22 160.046 22 151.974V69.322C22 64.9722 23.9375 60.8484 27.2859 58.0717L42.9101 45.1151Z" fill="white" stroke="#8B5CF6" stroke-width="1.21795"/>
<path d="M44.5 76L91 76.0001L102.385 76C110.456 76 117 82.5436 117 90.6154V152.385C117 160.456 110.456 167 102.385 167H36.6154C28.5435 167 22 160.456 22 152.385V90.6154C22 82.5435 28.5435 76 36.6154 76H44.5Z" fill="#8B5CF6"/>
<rect x="25.045" y="18.609" width="87.6923" height="23.141" rx="11.5705" fill="white" stroke="#8B5CF6" stroke-width="1.21795"/>
<rect x="23.2178" y="78.8975" width="92.5641" height="60.8974" fill="#F3F3F3"/>
<path d="M63.7423 92.1365V103.987H61.7985V98.8036H56.2227V103.987H54.2788V92.1365H56.2227V97.2178H61.7985V92.1365H63.7423ZM65.3635 99.2469C65.3635 98.3034 65.5568 97.4679 65.9433 96.7404C66.3411 96.0129 66.8754 95.4502 67.5461 95.0523C68.2281 94.6431 68.9784 94.4385 69.7968 94.4385C70.5357 94.4385 71.178 94.5862 71.7236 94.8818C72.2806 95.166 72.724 95.5241 73.0536 95.956V94.5919H75.0145V103.987H73.0536V102.589C72.724 103.032 72.275 103.402 71.7066 103.697C71.1382 103.993 70.4903 104.141 69.7627 104.141C68.9556 104.141 68.2168 103.936 67.5461 103.527C66.8754 103.106 66.3411 102.526 65.9433 101.788C65.5568 101.037 65.3635 100.19 65.3635 99.2469ZM73.0536 99.281C73.0536 98.6331 72.9172 98.0704 72.6444 97.593C72.383 97.1155 72.0362 96.7518 71.6043 96.5017C71.1723 96.2516 70.7062 96.1265 70.2061 96.1265C69.7059 96.1265 69.2398 96.2516 68.8079 96.5017C68.3759 96.7404 68.0235 97.0985 67.7507 97.5759C67.4892 98.042 67.3585 98.599 67.3585 99.2469C67.3585 99.8949 67.4892 100.463 67.7507 100.952C68.0235 101.441 68.3759 101.816 68.8079 102.077C69.2512 102.328 69.7173 102.453 70.2061 102.453C70.7062 102.453 71.1723 102.328 71.6043 102.077C72.0362 101.827 72.383 101.464 72.6444 100.986C72.9172 100.497 73.0536 99.929 73.0536 99.281ZM79.2217 91.3692V103.987H77.2778V91.3692H79.2217ZM85.4227 96.1777H83.6835V103.987H81.7226V96.1777H80.6143V94.5919H81.7226V93.9269C81.7226 92.847 82.0068 92.0627 82.5752 91.5738C83.1549 91.0737 84.0586 90.8236 85.2863 90.8236V92.4435C84.6952 92.4435 84.2803 92.5571 84.0416 92.7845C83.8029 93.0005 83.6835 93.3813 83.6835 93.9269V94.5919H85.4227V96.1777Z" fill="#242424"/>
<path d="M56.0216 118.793H50.8916V122.125C51.1157 121.813 51.447 121.56 51.8854 121.365C52.3239 121.16 52.7965 121.058 53.3031 121.058C54.1119 121.058 54.7695 121.229 55.2762 121.57C55.7829 121.901 56.1434 122.335 56.3578 122.87C56.5819 123.397 56.6939 123.957 56.6939 124.551C56.6939 125.253 56.5624 125.881 56.2993 126.437C56.0362 126.992 55.6319 127.43 55.0862 127.752C54.5503 128.074 53.8829 128.234 53.0839 128.234C52.0608 128.234 51.2326 127.971 50.5993 127.445C49.966 126.919 49.5811 126.217 49.4447 125.34H50.7454C50.8721 125.896 51.1401 126.329 51.5493 126.641C51.9585 126.953 52.4749 127.109 53.0985 127.109C53.8683 127.109 54.448 126.88 54.8378 126.422C55.2275 125.954 55.4224 125.34 55.4224 124.58C55.4224 123.82 55.2275 123.236 54.8378 122.827C54.448 122.408 53.8731 122.198 53.1131 122.198C52.5967 122.198 52.1436 122.325 51.7539 122.578C51.3739 122.822 51.0962 123.158 50.9208 123.587H49.6639V117.624H56.0216V118.793ZM68.0636 120.05C68.6872 120.05 69.2426 120.181 69.7298 120.444C70.217 120.698 70.6019 121.083 70.8844 121.599C71.167 122.115 71.3083 122.744 71.3083 123.484V128.205H69.9929V123.674C69.9929 122.875 69.7931 122.266 69.3936 121.847C69.0039 121.419 68.4729 121.204 67.8006 121.204C67.1088 121.204 66.5583 121.428 66.149 121.877C65.7398 122.315 65.5352 122.953 65.5352 123.791V128.205H64.2198V123.674C64.2198 122.875 64.0201 122.266 63.6206 121.847C63.2308 121.419 62.6998 121.204 62.0275 121.204C61.3357 121.204 60.7852 121.428 60.376 121.877C59.9667 122.315 59.7621 122.953 59.7621 123.791V128.205H58.4321V120.196H59.7621V121.35C60.0252 120.931 60.376 120.61 60.8144 120.386C61.2626 120.162 61.7547 120.05 62.2906 120.05C62.9629 120.05 63.5572 120.201 64.0736 120.503C64.5901 120.805 64.9749 121.248 65.2283 121.833C65.4524 121.268 65.8226 120.829 66.339 120.517C66.8554 120.206 67.4303 120.05 68.0636 120.05ZM72.7446 124.186C72.7446 123.358 72.9102 122.637 73.2415 122.023C73.5728 121.399 74.0307 120.917 74.6153 120.576C75.2097 120.235 75.8869 120.064 76.6469 120.064C77.631 120.064 78.4397 120.303 79.073 120.78C79.7161 121.258 80.14 121.92 80.3446 122.768H78.9123C78.7758 122.281 78.5079 121.896 78.1084 121.614C77.7187 121.331 77.2315 121.19 76.6469 121.19C75.8869 121.19 75.273 121.453 74.8053 121.979C74.3376 122.495 74.1038 123.231 74.1038 124.186C74.1038 125.15 74.3376 125.896 74.8053 126.422C75.273 126.948 75.8869 127.211 76.6469 127.211C77.2315 127.211 77.7187 127.075 78.1084 126.802C78.4982 126.529 78.7661 126.139 78.9123 125.633H80.3446C80.1302 126.451 79.7015 127.109 79.0584 127.606C78.4153 128.093 77.6115 128.337 76.6469 128.337C75.8869 128.337 75.2097 128.166 74.6153 127.825C74.0307 127.484 73.5728 127.002 73.2415 126.378C72.9102 125.755 72.7446 125.024 72.7446 124.186ZM85.1738 120.064C85.8656 120.064 86.4697 120.215 86.9861 120.517C87.5123 120.819 87.902 121.199 88.1553 121.657V120.196H89.5V128.38C89.5 129.111 89.3441 129.759 89.0323 130.324C88.7205 130.899 88.2723 131.347 87.6877 131.669C87.1128 131.99 86.4405 132.151 85.6707 132.151C84.6184 132.151 83.7415 131.903 83.04 131.406C82.3384 130.909 81.9243 130.232 81.7977 129.374H83.113C83.2592 129.861 83.5612 130.251 84.0192 130.544C84.4771 130.846 85.0277 130.997 85.6707 130.997C86.4015 130.997 86.9959 130.768 87.4538 130.31C87.9215 129.852 88.1553 129.209 88.1553 128.38V126.7C87.8923 127.167 87.5025 127.557 86.9861 127.869C86.4697 128.181 85.8656 128.337 85.1738 128.337C84.4625 128.337 83.8146 128.161 83.23 127.81C82.6551 127.46 82.202 126.968 81.8707 126.334C81.5394 125.701 81.3738 124.98 81.3738 124.171C81.3738 123.353 81.5394 122.637 81.8707 122.023C82.202 121.399 82.6551 120.917 83.23 120.576C83.8146 120.235 84.4625 120.064 85.1738 120.064ZM88.1553 124.186C88.1553 123.582 88.0336 123.056 87.79 122.607C87.5464 122.159 87.2151 121.818 86.7961 121.584C86.3869 121.341 85.9338 121.219 85.4369 121.219C84.94 121.219 84.4869 121.336 84.0777 121.57C83.6684 121.804 83.342 122.145 83.0984 122.593C82.8548 123.041 82.733 123.567 82.733 124.171C82.733 124.785 82.8548 125.321 83.0984 125.779C83.342 126.227 83.6684 126.573 84.0777 126.817C84.4869 127.05 84.94 127.167 85.4369 127.167C85.9338 127.167 86.3869 127.05 86.7961 126.817C87.2151 126.573 87.5464 126.227 87.79 125.779C88.0336 125.321 88.1553 124.79 88.1553 124.186Z" fill="#636363"/>
<path d="M165.768 120.112C165.032 120.112 164.371 119.984 163.784 119.728C163.208 119.461 162.755 119.099 162.424 118.64C162.093 118.171 161.923 117.632 161.912 117.024H163.464C163.517 117.547 163.731 117.989 164.104 118.352C164.488 118.704 165.043 118.88 165.768 118.88C166.461 118.88 167.005 118.709 167.4 118.368C167.805 118.016 168.008 117.568 168.008 117.024C168.008 116.597 167.891 116.251 167.656 115.984C167.421 115.717 167.128 115.515 166.776 115.376C166.424 115.237 165.949 115.088 165.352 114.928C164.616 114.736 164.024 114.544 163.576 114.352C163.139 114.16 162.76 113.861 162.44 113.456C162.131 113.04 161.976 112.485 161.976 111.792C161.976 111.184 162.131 110.645 162.44 110.176C162.749 109.707 163.181 109.344 163.736 109.088C164.301 108.832 164.947 108.704 165.672 108.704C166.717 108.704 167.571 108.965 168.232 109.488C168.904 110.011 169.283 110.704 169.368 111.568H167.768C167.715 111.141 167.491 110.768 167.096 110.448C166.701 110.117 166.179 109.952 165.528 109.952C164.92 109.952 164.424 110.112 164.04 110.432C163.656 110.741 163.464 111.179 163.464 111.744C163.464 112.149 163.576 112.48 163.8 112.736C164.035 112.992 164.317 113.189 164.648 113.328C164.989 113.456 165.464 113.605 166.072 113.776C166.808 113.979 167.4 114.181 167.848 114.384C168.296 114.576 168.68 114.88 169 115.296C169.32 115.701 169.48 116.256 169.48 116.96C169.48 117.504 169.336 118.016 169.048 118.496C168.76 118.976 168.333 119.365 167.768 119.664C167.203 119.963 166.536 120.112 165.768 120.112ZM179.351 115.28C179.351 115.557 179.335 115.851 179.303 116.16H172.295C172.348 117.024 172.641 117.701 173.175 118.192C173.719 118.672 174.375 118.912 175.143 118.912C175.772 118.912 176.295 118.768 176.711 118.48C177.137 118.181 177.436 117.787 177.607 117.296H179.175C178.94 118.139 178.471 118.827 177.767 119.36C177.063 119.883 176.188 120.144 175.143 120.144C174.311 120.144 173.564 119.957 172.903 119.584C172.252 119.211 171.74 118.683 171.367 118C170.993 117.307 170.807 116.507 170.807 115.6C170.807 114.693 170.988 113.899 171.351 113.216C171.713 112.533 172.22 112.011 172.871 111.648C173.532 111.275 174.289 111.088 175.143 111.088C175.975 111.088 176.711 111.269 177.351 111.632C177.991 111.995 178.481 112.496 178.823 113.136C179.175 113.765 179.351 114.48 179.351 115.28ZM177.847 114.976C177.847 114.421 177.724 113.947 177.479 113.552C177.233 113.147 176.897 112.843 176.471 112.64C176.055 112.427 175.591 112.32 175.079 112.32C174.343 112.32 173.713 112.555 173.191 113.024C172.679 113.493 172.385 114.144 172.311 114.976H177.847ZM182.456 108.16V120H181V108.16H182.456ZM192.666 115.28C192.666 115.557 192.65 115.851 192.618 116.16H185.61C185.663 117.024 185.957 117.701 186.49 118.192C187.034 118.672 187.69 118.912 188.458 118.912C189.087 118.912 189.61 118.768 190.026 118.48C190.453 118.181 190.751 117.787 190.922 117.296H192.49C192.255 118.139 191.786 118.827 191.082 119.36C190.378 119.883 189.503 120.144 188.458 120.144C187.626 120.144 186.879 119.957 186.218 119.584C185.567 119.211 185.055 118.683 184.682 118C184.309 117.307 184.122 116.507 184.122 115.6C184.122 114.693 184.303 113.899 184.666 113.216C185.029 112.533 185.535 112.011 186.186 111.648C186.847 111.275 187.605 111.088 188.458 111.088C189.29 111.088 190.026 111.269 190.666 111.632C191.306 111.995 191.797 112.496 192.138 113.136C192.49 113.765 192.666 114.48 192.666 115.28ZM191.162 114.976C191.162 114.421 191.039 113.947 190.794 113.552C190.549 113.147 190.213 112.843 189.786 112.64C189.37 112.427 188.906 112.32 188.394 112.32C187.658 112.32 187.029 112.555 186.506 113.024C185.994 113.493 185.701 114.144 185.626 114.976H191.162ZM193.772 115.6C193.772 114.693 193.953 113.904 194.316 113.232C194.679 112.549 195.18 112.021 195.82 111.648C196.471 111.275 197.212 111.088 198.044 111.088C199.121 111.088 200.007 111.349 200.7 111.872C201.404 112.395 201.868 113.12 202.092 114.048H200.524C200.375 113.515 200.081 113.093 199.644 112.784C199.217 112.475 198.684 112.32 198.044 112.32C197.212 112.32 196.54 112.608 196.028 113.184C195.516 113.749 195.26 114.555 195.26 115.6C195.26 116.656 195.516 117.472 196.028 118.048C196.54 118.624 197.212 118.912 198.044 118.912C198.684 118.912 199.217 118.763 199.644 118.464C200.071 118.165 200.364 117.739 200.524 117.184H202.092C201.857 118.08 201.388 118.8 200.684 119.344C199.98 119.877 199.1 120.144 198.044 120.144C197.212 120.144 196.471 119.957 195.82 119.584C195.18 119.211 194.679 118.683 194.316 118C193.953 117.317 193.772 116.517 193.772 115.6ZM205.539 112.432V117.6C205.539 118.027 205.629 118.331 205.811 118.512C205.992 118.683 206.307 118.768 206.755 118.768H207.827V120H206.515C205.704 120 205.096 119.813 204.691 119.44C204.285 119.067 204.083 118.453 204.083 117.6V112.432H202.947V111.232H204.083V109.024H205.539V111.232H207.827V112.432H205.539ZM212.768 114.416C212.768 113.328 213.014 112.352 213.504 111.488C213.995 110.613 214.662 109.931 215.504 109.44C216.358 108.949 217.302 108.704 218.336 108.704C219.552 108.704 220.614 108.997 221.52 109.584C222.427 110.171 223.088 111.003 223.504 112.08H221.76C221.451 111.408 221.003 110.891 220.416 110.528C219.84 110.165 219.147 109.984 218.336 109.984C217.558 109.984 216.859 110.165 216.24 110.528C215.622 110.891 215.136 111.408 214.784 112.08C214.432 112.741 214.256 113.52 214.256 114.416C214.256 115.301 214.432 116.08 214.784 116.752C215.136 117.413 215.622 117.925 216.24 118.288C216.859 118.651 217.558 118.832 218.336 118.832C219.147 118.832 219.84 118.656 220.416 118.304C221.003 117.941 221.451 117.424 221.76 116.752H223.504C223.088 117.819 222.427 118.645 221.52 119.232C220.614 119.808 219.552 120.096 218.336 120.096C217.302 120.096 216.358 119.856 215.504 119.376C214.662 118.885 213.995 118.208 213.504 117.344C213.014 116.48 212.768 115.504 212.768 114.416ZM229.224 120.144C228.402 120.144 227.656 119.957 226.984 119.584C226.322 119.211 225.8 118.683 225.416 118C225.042 117.307 224.856 116.507 224.856 115.6C224.856 114.704 225.048 113.915 225.432 113.232C225.826 112.539 226.36 112.011 227.032 111.648C227.704 111.275 228.456 111.088 229.288 111.088C230.12 111.088 230.872 111.275 231.544 111.648C232.216 112.011 232.744 112.533 233.128 113.216C233.522 113.899 233.72 114.693 233.72 115.6C233.72 116.507 233.517 117.307 233.112 118C232.717 118.683 232.178 119.211 231.496 119.584C230.813 119.957 230.056 120.144 229.224 120.144ZM229.224 118.864C229.746 118.864 230.237 118.741 230.696 118.496C231.154 118.251 231.522 117.883 231.8 117.392C232.088 116.901 232.232 116.304 232.232 115.6C232.232 114.896 232.093 114.299 231.816 113.808C231.538 113.317 231.176 112.955 230.728 112.72C230.28 112.475 229.794 112.352 229.272 112.352C228.738 112.352 228.248 112.475 227.8 112.72C227.362 112.955 227.01 113.317 226.744 113.808C226.477 114.299 226.344 114.896 226.344 115.6C226.344 116.315 226.472 116.917 226.728 117.408C226.994 117.899 227.346 118.267 227.784 118.512C228.221 118.747 228.701 118.864 229.224 118.864ZM236.818 108.16V120H235.362V108.16H236.818ZM242.852 120.144C242.03 120.144 241.284 119.957 240.612 119.584C239.95 119.211 239.428 118.683 239.044 118C238.67 117.307 238.484 116.507 238.484 115.6C238.484 114.704 238.676 113.915 239.06 113.232C239.454 112.539 239.988 112.011 240.66 111.648C241.332 111.275 242.084 111.088 242.916 111.088C243.748 111.088 244.5 111.275 245.172 111.648C245.844 112.011 246.372 112.533 246.756 113.216C247.15 113.899 247.348 114.693 247.348 115.6C247.348 116.507 247.145 117.307 246.74 118C246.345 118.683 245.806 119.211 245.124 119.584C244.441 119.957 243.684 120.144 242.852 120.144ZM242.852 118.864C243.374 118.864 243.865 118.741 244.324 118.496C244.782 118.251 245.15 117.883 245.428 117.392C245.716 116.901 245.86 116.304 245.86 115.6C245.86 114.896 245.721 114.299 245.444 113.808C245.166 113.317 244.804 112.955 244.356 112.72C243.908 112.475 243.422 112.352 242.9 112.352C242.366 112.352 241.876 112.475 241.428 112.72C240.99 112.955 240.638 113.317 240.372 113.808C240.105 114.299 239.972 114.896 239.972 115.6C239.972 116.315 240.1 116.917 240.356 117.408C240.622 117.899 240.974 118.267 241.412 118.512C241.849 118.747 242.329 118.864 242.852 118.864ZM250.446 112.656C250.702 112.155 251.065 111.765 251.534 111.488C252.014 111.211 252.595 111.072 253.278 111.072V112.576H252.894C251.262 112.576 250.446 113.461 250.446 115.232V120H248.99V111.232H250.446V112.656Z" fill="#636363"/>
<rect x="161" y="133" width="34" height="34" rx="8" fill="#8B5CF6"/>
<g clip-path="url(#clip0_2_1121)">
<path d="M170.781 151.031L175.594 155.844L185.219 145.531" stroke="white" stroke-width="1.125" stroke-linecap="round" stroke-linejoin="round"/>
</g>
<rect x="201" y="133" width="34" height="34" rx="8" fill="#947005"/>
<rect x="241" y="133" width="34" height="34" rx="8" fill="#0D9488"/>
<path d="M165.704 24.848C166.92 24.848 167.971 25.0773 168.856 25.536C169.752 25.984 170.435 26.6293 170.904 27.472C171.384 28.3147 171.624 29.3067 171.624 30.448C171.624 31.5893 171.384 32.5813 170.904 33.424C170.435 34.256 169.752 34.896 168.856 35.344C167.971 35.7813 166.92 36 165.704 36H162.232V24.848H165.704ZM165.704 34.8C167.144 34.8 168.243 34.4213 169 33.664C169.757 32.896 170.136 31.824 170.136 30.448C170.136 29.0613 169.752 27.9787 168.984 27.2C168.227 26.4213 167.133 26.032 165.704 26.032H163.688V34.8H165.704ZM177.096 36.144C176.275 36.144 175.528 35.9573 174.856 35.584C174.195 35.2107 173.672 34.6827 173.288 34C172.915 33.3067 172.728 32.5067 172.728 31.6C172.728 30.704 172.92 29.9147 173.304 29.232C173.699 28.5387 174.232 28.0107 174.904 27.648C175.576 27.2747 176.328 27.088 177.161 27.088C177.993 27.088 178.745 27.2747 179.417 27.648C180.089 28.0107 180.617 28.5333 181 29.216C181.395 29.8987 181.592 30.6933 181.592 31.6C181.592 32.5067 181.39 33.3067 180.984 34C180.59 34.6827 180.051 35.2107 179.369 35.584C178.686 35.9573 177.929 36.144 177.096 36.144ZM177.096 34.864C177.619 34.864 178.11 34.7413 178.569 34.496C179.027 34.2507 179.395 33.8827 179.673 33.392C179.96 32.9013 180.104 32.304 180.104 31.6C180.104 30.896 179.966 30.2987 179.688 29.808C179.411 29.3173 179.049 28.9547 178.601 28.72C178.153 28.4747 177.667 28.352 177.144 28.352C176.611 28.352 176.121 28.4747 175.672 28.72C175.235 28.9547 174.883 29.3173 174.616 29.808C174.35 30.2987 174.216 30.896 174.216 31.6C174.216 32.3147 174.344 32.9173 174.6 33.408C174.867 33.8987 175.219 34.2667 175.656 34.512C176.094 34.7467 176.574 34.864 177.096 34.864ZM186.339 36.144C185.667 36.144 185.064 36.032 184.531 35.808C183.998 35.5733 183.576 35.2533 183.267 34.848C182.958 34.432 182.787 33.9573 182.755 33.424H184.259C184.302 33.8613 184.504 34.2187 184.867 34.496C185.24 34.7733 185.726 34.912 186.323 34.912C186.878 34.912 187.315 34.7893 187.635 34.544C187.955 34.2987 188.115 33.9893 188.115 33.616C188.115 33.232 187.944 32.9493 187.603 32.768C187.262 32.576 186.734 32.3893 186.019 32.208C185.368 32.0373 184.835 31.8667 184.419 31.696C184.014 31.5147 183.662 31.2533 183.363 30.912C183.075 30.56 182.931 30.1013 182.931 29.536C182.931 29.088 183.064 28.6773 183.331 28.304C183.598 27.9307 183.976 27.6373 184.467 27.424C184.958 27.2 185.518 27.088 186.147 27.088C187.118 27.088 187.902 27.3333 188.499 27.824C189.096 28.3147 189.416 28.9867 189.459 29.84H188.003C187.971 29.3813 187.784 29.0133 187.443 28.736C187.112 28.4587 186.664 28.32 186.099 28.32C185.576 28.32 185.16 28.432 184.851 28.656C184.542 28.88 184.387 29.1733 184.387 29.536C184.387 29.824 184.478 30.064 184.659 30.256C184.851 30.4373 185.086 30.5867 185.363 30.704C185.651 30.8107 186.046 30.9333 186.547 31.072C187.176 31.2427 187.688 31.4133 188.083 31.584C188.478 31.744 188.814 31.9893 189.091 32.32C189.379 32.6507 189.528 33.0827 189.539 33.616C189.539 34.096 189.406 34.528 189.139 34.912C188.872 35.296 188.494 35.6 188.003 35.824C187.523 36.0373 186.968 36.144 186.339 36.144ZM199.322 31.28C199.322 31.5573 199.306 31.8507 199.274 32.16H192.266C192.32 33.024 192.613 33.7013 193.146 34.192C193.69 34.672 194.346 34.912 195.114 34.912C195.744 34.912 196.266 34.768 196.682 34.48C197.109 34.1813 197.408 33.7867 197.578 33.296H199.146C198.912 34.1387 198.442 34.8267 197.738 35.36C197.034 35.8827 196.16 36.144 195.114 36.144C194.282 36.144 193.536 35.9573 192.874 35.584C192.224 35.2107 191.712 34.6827 191.338 34C190.965 33.3067 190.778 32.5067 190.778 31.6C190.778 30.6933 190.96 29.8987 191.322 29.216C191.685 28.5333 192.192 28.0107 192.842 27.648C193.504 27.2747 194.261 27.088 195.114 27.088C195.946 27.088 196.682 27.2693 197.322 27.632C197.962 27.9947 198.453 28.496 198.794 29.136C199.146 29.7653 199.322 30.48 199.322 31.28ZM197.818 30.976C197.818 30.4213 197.696 29.9467 197.45 29.552C197.205 29.1467 196.869 28.8427 196.442 28.64C196.026 28.4267 195.562 28.32 195.05 28.32C194.314 28.32 193.685 28.5547 193.162 29.024C192.65 29.4933 192.357 30.144 192.282 30.976H197.818Z" fill="#636363"/>
<path d="M169.368 51.696H163.752V55.344C163.997 55.0027 164.36 54.7253 164.84 54.512C165.32 54.288 165.837 54.176 166.392 54.176C167.277 54.176 167.997 54.3627 168.552 54.736C169.107 55.0987 169.501 55.5733 169.736 56.16C169.981 56.736 170.104 57.3493 170.104 58C170.104 58.768 169.96 59.456 169.672 60.064C169.384 60.672 168.941 61.152 168.344 61.504C167.757 61.856 167.027 62.032 166.152 62.032C165.032 62.032 164.125 61.744 163.432 61.168C162.739 60.592 162.317 59.824 162.168 58.864H163.592C163.731 59.472 164.024 59.9467 164.472 60.288C164.92 60.6293 165.485 60.8 166.168 60.8C167.011 60.8 167.645 60.5493 168.072 60.048C168.499 59.536 168.712 58.864 168.712 58.032C168.712 57.2 168.499 56.56 168.072 56.112C167.645 55.6533 167.016 55.424 166.184 55.424C165.619 55.424 165.123 55.5627 164.696 55.84C164.28 56.1067 163.976 56.4747 163.784 56.944H162.408V50.416H169.368V51.696ZM186.545 53.072C187.227 53.072 187.835 53.216 188.369 53.504C188.902 53.7813 189.323 54.2027 189.633 54.768C189.942 55.3333 190.097 56.0213 190.097 56.832V62H188.657V57.04C188.657 56.1653 188.438 55.4987 188.001 55.04C187.574 54.5707 186.993 54.336 186.257 54.336C185.499 54.336 184.897 54.5813 184.449 55.072C184.001 55.552 183.777 56.2507 183.777 57.168V62H182.337V57.04C182.337 56.1653 182.118 55.4987 181.681 55.04C181.254 54.5707 180.673 54.336 179.937 54.336C179.179 54.336 178.577 54.5813 178.129 55.072C177.681 55.552 177.457 56.2507 177.457 57.168V62H176.001V53.232H177.457V54.496C177.745 54.0373 178.129 53.6853 178.609 53.44C179.099 53.1947 179.638 53.072 180.225 53.072C180.961 53.072 181.611 53.2373 182.177 53.568C182.742 53.8987 183.163 54.384 183.441 55.024C183.686 54.4053 184.091 53.9253 184.657 53.584C185.222 53.2427 185.851 53.072 186.545 53.072ZM191.669 57.6C191.669 56.6933 191.85 55.904 192.213 55.232C192.576 54.5493 193.077 54.0213 193.717 53.648C194.368 53.2747 195.109 53.088 195.941 53.088C197.018 53.088 197.904 53.3493 198.597 53.872C199.301 54.3947 199.765 55.12 199.989 56.048H198.421C198.272 55.5147 197.978 55.0933 197.541 54.784C197.114 54.4747 196.581 54.32 195.941 54.32C195.109 54.32 194.437 54.608 193.925 55.184C193.413 55.7493 193.157 56.5547 193.157 57.6C193.157 58.656 193.413 59.472 193.925 60.048C194.437 60.624 195.109 60.912 195.941 60.912C196.581 60.912 197.114 60.7627 197.541 60.464C197.968 60.1653 198.261 59.7387 198.421 59.184H199.989C199.754 60.08 199.285 60.8 198.581 61.344C197.877 61.8773 196.997 62.144 195.941 62.144C195.109 62.144 194.368 61.9573 193.717 61.584C193.077 61.2107 192.576 60.6827 192.213 60C191.85 59.3173 191.669 58.5173 191.669 57.6ZM205.276 53.088C206.033 53.088 206.694 53.2533 207.26 53.584C207.836 53.9147 208.262 54.3307 208.54 54.832V53.232H210.012V62.192C210.012 62.992 209.841 63.7013 209.5 64.32C209.158 64.9493 208.668 65.44 208.028 65.792C207.398 66.144 206.662 66.32 205.82 66.32C204.668 66.32 203.708 66.048 202.94 65.504C202.172 64.96 201.718 64.2187 201.58 63.28H203.02C203.18 63.8133 203.51 64.24 204.012 64.56C204.513 64.8907 205.116 65.056 205.82 65.056C206.62 65.056 207.27 64.8053 207.772 64.304C208.284 63.8027 208.54 63.0987 208.54 62.192V60.352C208.252 60.864 207.825 61.2907 207.26 61.632C206.694 61.9733 206.033 62.144 205.276 62.144C204.497 62.144 203.788 61.952 203.148 61.568C202.518 61.184 202.022 60.6453 201.66 59.952C201.297 59.2587 201.116 58.4693 201.116 57.584C201.116 56.688 201.297 55.904 201.66 55.232C202.022 54.5493 202.518 54.0213 203.148 53.648C203.788 53.2747 204.497 53.088 205.276 53.088ZM208.54 57.6C208.54 56.9387 208.406 56.3627 208.14 55.872C207.873 55.3813 207.51 55.008 207.052 54.752C206.604 54.4853 206.108 54.352 205.564 54.352C205.02 54.352 204.524 54.48 204.076 54.736C203.628 54.992 203.27 55.3653 203.004 55.856C202.737 56.3467 202.604 56.9227 202.604 57.584C202.604 58.256 202.737 58.8427 203.004 59.344C203.27 59.8347 203.628 60.2133 204.076 60.48C204.524 60.736 205.02 60.864 205.564 60.864C206.108 60.864 206.604 60.736 207.052 60.48C207.51 60.2133 207.873 59.8347 208.14 59.344C208.406 58.8427 208.54 58.2613 208.54 57.6Z" fill="#242424"/>
<path d="M259.104 36L256.448 31.44H254.688V36H253.232V24.848H256.832C257.675 24.848 258.384 24.992 258.96 25.28C259.547 25.568 259.984 25.9573 260.272 26.448C260.56 26.9387 260.704 27.4987 260.704 28.128C260.704 28.896 260.48 29.5733 260.032 30.16C259.595 30.7467 258.933 31.136 258.048 31.328L260.848 36H259.104ZM254.688 30.272H256.832C257.621 30.272 258.213 30.08 258.608 29.696C259.003 29.3013 259.2 28.7787 259.2 28.128C259.2 27.4667 259.003 26.9547 258.608 26.592C258.224 26.2293 257.632 26.048 256.832 26.048H254.688V30.272ZM270.694 31.28C270.694 31.5573 270.678 31.8507 270.646 32.16H263.638C263.692 33.024 263.985 33.7013 264.518 34.192C265.062 34.672 265.718 34.912 266.486 34.912C267.116 34.912 267.638 34.768 268.054 34.48C268.481 34.1813 268.78 33.7867 268.95 33.296H270.518C270.284 34.1387 269.814 34.8267 269.11 35.36C268.406 35.8827 267.532 36.144 266.486 36.144C265.654 36.144 264.908 35.9573 264.246 35.584C263.596 35.2107 263.084 34.6827 262.71 34C262.337 33.3067 262.15 32.5067 262.15 31.6C262.15 30.6933 262.332 29.8987 262.694 29.216C263.057 28.5333 263.564 28.0107 264.214 27.648C264.876 27.2747 265.633 27.088 266.486 27.088C267.318 27.088 268.054 27.2693 268.694 27.632C269.334 27.9947 269.825 28.496 270.166 29.136C270.518 29.7653 270.694 30.48 270.694 31.28ZM269.19 30.976C269.19 30.4213 269.068 29.9467 268.822 29.552C268.577 29.1467 268.241 28.8427 267.814 28.64C267.398 28.4267 266.934 28.32 266.422 28.32C265.686 28.32 265.057 28.5547 264.534 29.024C264.022 29.4933 263.729 30.144 263.654 30.976H269.19ZM275.912 28.432H274.072V36H272.616V28.432H271.48V27.232H272.616V26.608C272.616 25.6267 272.867 24.912 273.368 24.464C273.88 24.0053 274.696 23.776 275.816 23.776V24.992C275.176 24.992 274.723 25.12 274.456 25.376C274.2 25.6213 274.072 26.032 274.072 26.608V27.232H275.912V28.432ZM278.09 25.808C277.813 25.808 277.578 25.712 277.386 25.52C277.194 25.328 277.098 25.0933 277.098 24.816C277.098 24.5387 277.194 24.304 277.386 24.112C277.578 23.92 277.813 23.824 278.09 23.824C278.357 23.824 278.581 23.92 278.762 24.112C278.954 24.304 279.05 24.5387 279.05 24.816C279.05 25.0933 278.954 25.328 278.762 25.52C278.581 25.712 278.357 25.808 278.09 25.808ZM278.794 27.232V36H277.338V27.232H278.794ZM282.459 24.16V36H281.003V24.16H282.459ZM286.125 24.16V36H284.669V24.16H286.125Z" fill="#636363"/>
<g clip-path="url(#clip1_2_1121)">
<mask id="mask0_2_1121" style="mask-type:luminance" maskUnits="userSpaceOnUse" x="252" y="44" width="24" height="24">
<path d="M252 44H276V68H252V44Z" fill="white"/>
</mask>
<g mask="url(#mask0_2_1121)">
<path d="M271.729 54.929C272.126 56.411 272.088 57.9759 271.621 59.4372C271.153 60.8985 270.276 62.1947 269.092 63.1713C267.909 64.1479 266.47 64.7638 264.947 64.9457C263.423 65.1275 261.88 64.8676 260.5 64.197M270.363 52.05L269.656 51.343C268.21 49.8961 266.264 49.0582 264.219 49.0016C262.174 48.9449 260.185 49.6739 258.661 51.0385C257.137 52.4032 256.194 54.2998 256.025 56.3386C255.856 58.3774 256.475 60.4033 257.754 62M270.364 47.809L270.363 52.05H266.121" stroke="black" stroke-width="1.5" stroke-linecap="round" stroke-linejoin="round"/>
</g>
</g>
<defs>
<clipPath id="clip0_2_1121">
<rect width="22" height="22" fill="white" transform="translate(167 139)"/>
</clipPath>
<clipPath id="clip1_2_1121">
<rect width="24" height="24" fill="white" transform="translate(252 44)"/>
</clipPath>
</defs>
</svg>
