<svg width="50" height="50" viewBox="0 0 50 50" fill="none" xmlns="http://www.w3.org/2000/svg">
<rect width="50" height="50" rx="12" fill="url(#paint0_linear_2_1173)"/>
<g clip-path="url(#clip0_2_1173)">
<path d="M24.0892 18.31C24.0893 18.1919 24.1127 18.0748 24.158 17.9657C24.2033 17.8565 24.2696 17.7573 24.3533 17.6738C24.4369 17.5903 24.5361 17.5241 24.6454 17.4789C24.7546 17.4338 24.8716 17.4106 24.9898 17.4106C25.108 17.4107 25.225 17.4341 25.3342 17.4794C25.4434 17.5247 25.5425 17.591 25.626 17.6747C25.7096 17.7583 25.7758 17.8576 25.8209 17.9668C25.8661 18.076 25.8893 18.1931 25.8892 18.3112L24.0892 18.31ZM24.9886 19.6666H24.0886V19.666L24.9886 19.6666ZM25.8886 25.6888C25.8886 25.9275 25.7938 26.1565 25.625 26.3252C25.4562 26.494 25.2273 26.5888 24.9886 26.5888C24.7499 26.5888 24.521 26.494 24.3522 26.3252C24.1834 26.1565 24.0886 25.9275 24.0886 25.6888H25.8886ZM24.0886 25.6999C24.0886 25.4613 24.1834 25.2323 24.3522 25.0635C24.521 24.8948 24.7499 24.7999 24.9886 24.7999C25.2273 24.7999 25.4562 24.8948 25.625 25.0635C25.7938 25.2323 25.8886 25.4613 25.8886 25.6999H24.0886ZM25.8886 32.2C25.8886 32.4387 25.7938 32.6677 25.625 32.8364C25.4562 33.0052 25.2273 33.1 24.9886 33.1C24.7499 33.1 24.521 33.0052 24.3522 32.8364C24.1834 32.6677 24.0886 32.4387 24.0886 32.2H25.8886ZM25.8892 18.3112V18.3337L24.0892 18.3328V18.31L25.8892 18.3112ZM25.8892 18.3337V18.6007L24.0892 18.5992V18.3328L25.8892 18.3337ZM25.8892 18.6007V18.8671L24.0892 18.8659V18.5992L25.8892 18.6007ZM25.8892 18.8671L25.8889 19.1341L24.0889 19.1326L24.0892 18.8659L25.8892 18.8671ZM25.8889 19.1341L25.8886 19.4005L24.0886 19.3993L24.0889 19.1326L25.8889 19.1341ZM25.8886 19.4005V19.6672L24.0886 19.666V19.3993L25.8886 19.4005ZM25.8886 19.6666V25.6888H24.0886V19.6666H25.8886ZM25.8886 25.6999V32.2H24.0886V25.6999H25.8886Z" fill="white"/>
<path d="M17.533 24.733L23.8861 18.3802C24.0323 18.2339 24.2059 18.1179 24.397 18.0387C24.5881 17.9596 24.793 17.9188 24.9998 17.9188C25.2067 17.9188 25.4115 17.9596 25.6026 18.0387C25.7937 18.1179 25.9673 18.2339 26.1136 18.3802L32.4664 24.7333" stroke="white" stroke-width="1.5" stroke-linecap="round" stroke-linejoin="round"/>
</g>
<defs>
<linearGradient id="paint0_linear_2_1173" x1="25" y1="0" x2="25" y2="50" gradientUnits="userSpaceOnUse">
<stop offset="0.0865385" stop-color="#BD2BF2"/>
<stop offset="0.927885" stop-color="#976EF6"/>
</linearGradient>
<clipPath id="clip0_2_1173">
<rect width="24" height="24" fill="white" transform="translate(13 13)"/>
</clipPath>
</defs>
</svg>
