<svg width="18" height="18" viewBox="0 0 18 18" fill="none" xmlns="http://www.w3.org/2000/svg">
<g clip-path="url(#clip0_1_218)">
<path d="M4.308 14.8763C4.38412 15.3675 4.46325 15.8145 4.52925 16.1678C4.623 16.6646 4.97625 17.0636 5.47612 17.139C5.86837 17.1986 6.41325 17.25 7.125 17.25C7.80187 17.25 8.358 17.2035 8.78137 17.148C9.37537 17.07 9.79162 16.5758 9.85612 15.9803L9.9765 14.8695" stroke="url(#paint0_linear_1_218)" stroke-linecap="round" stroke-linejoin="round"/>
<path d="M13.3586 0.976554C13.3909 0.917576 13.4385 0.868372 13.4964 0.834098C13.5542 0.799823 13.6203 0.781738 13.6875 0.781738C13.7548 0.781738 13.8208 0.799823 13.8786 0.834098C13.9365 0.868372 13.9841 0.917576 14.0164 0.976554L14.7634 2.3423C14.9698 2.71982 15.2802 3.03021 15.6578 3.23668L17.0235 3.98368C17.0825 4.01599 17.1317 4.06357 17.166 4.12143C17.2002 4.17929 17.2183 4.2453 17.2183 4.31255C17.2183 4.3798 17.2002 4.44582 17.166 4.50368C17.1317 4.56154 17.0825 4.60912 17.0235 4.64143L15.6578 5.38843C15.2802 5.5949 14.9698 5.90529 14.7634 6.2828L14.0164 7.64855C13.9841 7.70753 13.9365 7.75674 13.8786 7.79101C13.8208 7.82529 13.7548 7.84337 13.6875 7.84337C13.6203 7.84337 13.5542 7.82529 13.4964 7.79101C13.4385 7.75674 13.3909 7.70753 13.3586 7.64855L12.6116 6.2828C12.4052 5.90529 12.0948 5.5949 11.7173 5.38843L10.3515 4.64143C10.2925 4.60912 10.2433 4.56154 10.209 4.50368C10.1748 4.44582 10.1567 4.3798 10.1567 4.31255C10.1567 4.2453 10.1748 4.17929 10.209 4.12143C10.2433 4.06357 10.2925 4.01599 10.3515 3.98368L11.7173 3.23668C12.0948 3.03021 12.4052 2.71982 12.6116 2.3423L13.3586 0.976554Z" stroke="url(#paint1_linear_1_218)"/>
<path d="M9.5625 1.98263C8.78952 1.66343 7.96129 1.49944 7.125 1.5C3.60413 1.5 0.75 4.35413 0.75 7.875C0.75 9.91238 1.70587 11.7266 3.1935 12.8936C3.30312 13.3318 3.42454 13.767 3.55763 14.1986C3.67275 14.5729 3.98362 14.8448 4.37325 14.8856C4.89562 14.94 5.7765 15 7.125 15C8.4735 15 9.35437 14.94 9.87675 14.8856C10.2664 14.8448 10.5772 14.5729 10.692 14.1983C10.7996 13.8484 10.9357 13.3808 11.0565 12.8936C12.003 12.1518 12.7211 11.158 13.128 10.0264" stroke="url(#paint2_linear_1_218)" stroke-linecap="round" stroke-linejoin="round"/>
</g>
<defs>
<linearGradient id="paint0_linear_1_218" x1="7.14225" y1="14.8695" x2="7.14225" y2="17.25" gradientUnits="userSpaceOnUse">
<stop stop-color="#8B5CF6"/>
<stop offset="1" stop-color="#BD2BF2"/>
</linearGradient>
<linearGradient id="paint1_linear_1_218" x1="13.6875" y1="0.781738" x2="13.6875" y2="7.84337" gradientUnits="userSpaceOnUse">
<stop stop-color="#8B5CF6"/>
<stop offset="1" stop-color="#BD2BF2"/>
</linearGradient>
<linearGradient id="paint2_linear_1_218" x1="6.939" y1="1.5" x2="6.939" y2="15" gradientUnits="userSpaceOnUse">
<stop stop-color="#8B5CF6"/>
<stop offset="1" stop-color="#BD2BF2"/>
</linearGradient>
<clipPath id="clip0_1_218">
<rect width="18" height="18" fill="white"/>
</clipPath>
</defs>
</svg>
