<svg width="41" height="41" viewBox="0 0 41 41" fill="none" xmlns="http://www.w3.org/2000/svg">
<rect x="0.5" y="0.5" width="40" height="40" rx="12" fill="white"/>
<rect x="0.5" y="0.5" width="40" height="40" rx="12" stroke="url(#paint0_linear_1_278)"/>
<g clip-path="url(#clip0_1_278)">
<path d="M19.875 14.25C20.6497 14.25 21.3789 14.3965 22.0625 14.6895C22.7461 14.9824 23.3418 15.3861 23.8496 15.9004C24.3574 16.4147 24.7578 17.0104 25.0508 17.6875C25.3438 18.3646 25.4935 19.0938 25.5 19.875C25.5 20.2852 25.474 20.6693 25.4219 21.0273C25.3698 21.3854 25.2884 21.7272 25.1777 22.0527C25.0671 22.3783 24.9238 22.7005 24.748 23.0195C24.5723 23.3385 24.3639 23.6641 24.123 23.9961C23.9342 24.2565 23.7682 24.4909 23.625 24.6992C23.4818 24.9076 23.3646 25.1159 23.2734 25.3242C23.1823 25.5326 23.1139 25.7604 23.0684 26.0078C23.0228 26.2552 23 26.5449 23 26.877V28.625C23 28.8854 22.9512 29.1296 22.8535 29.3574C22.7559 29.5853 22.6224 29.7839 22.4531 29.9531C22.2839 30.1224 22.0853 30.2559 21.8574 30.3535C21.6296 30.4512 21.3854 30.5 21.125 30.5H18.625C18.3646 30.5 18.1204 30.4512 17.8926 30.3535C17.6647 30.2559 17.4661 30.1224 17.2969 29.9531C17.1276 29.7839 16.9941 29.5853 16.8965 29.3574C16.7988 29.1296 16.75 28.8854 16.75 28.625V26.8672C16.75 26.5352 16.7272 26.2487 16.6816 26.0078C16.6361 25.7669 16.5677 25.5423 16.4766 25.334C16.3854 25.1257 16.2682 24.9141 16.125 24.6992C15.9818 24.4844 15.8158 24.25 15.627 23.9961C15.3861 23.6641 15.181 23.3418 15.0117 23.0293C14.8424 22.7168 14.6992 22.3945 14.582 22.0625C14.4648 21.7305 14.3802 21.3854 14.3281 21.0273C14.276 20.6693 14.25 20.2852 14.25 19.875C14.25 19.1003 14.3965 18.3711 14.6895 17.6875C14.9824 17.0039 15.3861 16.4082 15.9004 15.9004C16.4147 15.3926 17.0104 14.9922 17.6875 14.6992C18.3646 14.4062 19.0938 14.2565 19.875 14.25ZM21.75 28.625V28H18V28.625C18 28.7943 18.0618 28.9408 18.1855 29.0645C18.3092 29.1882 18.4557 29.25 18.625 29.25H21.125C21.2943 29.25 21.4408 29.1882 21.5645 29.0645C21.6882 28.9408 21.75 28.7943 21.75 28.625ZM24.25 19.875C24.25 19.2695 24.1361 18.7031 23.9082 18.1758C23.6803 17.6484 23.3678 17.1829 22.9707 16.7793C22.5736 16.3757 22.1113 16.0632 21.584 15.8418C21.0566 15.6204 20.487 15.5065 19.875 15.5C19.2695 15.5 18.7031 15.6139 18.1758 15.8418C17.6484 16.0697 17.1829 16.3822 16.7793 16.7793C16.3757 17.1764 16.0632 17.6387 15.8418 18.166C15.6204 18.6934 15.5065 19.263 15.5 19.875C15.5 20.4544 15.5586 20.9525 15.6758 21.3691C15.793 21.7858 15.946 22.1569 16.1348 22.4824C16.3236 22.8079 16.5221 23.1139 16.7305 23.4004C16.9388 23.6868 17.1374 23.9863 17.3262 24.2988C17.515 24.6113 17.6712 24.9629 17.7949 25.3535C17.9186 25.7441 17.987 26.2096 18 26.75H21.75C21.7565 26.2096 21.8216 25.7474 21.9453 25.3633C22.069 24.9792 22.2253 24.6276 22.4141 24.3086C22.6029 23.9896 22.8014 23.6901 23.0098 23.4102C23.2181 23.1302 23.4167 22.8242 23.6055 22.4922C23.7943 22.1602 23.9473 21.7858 24.0645 21.3691C24.1816 20.9525 24.2435 20.4544 24.25 19.875ZM19.875 13C19.7057 13 19.5592 12.9382 19.4355 12.8145C19.3118 12.6908 19.25 12.5443 19.25 12.375V11.125C19.25 10.9557 19.3118 10.8092 19.4355 10.6855C19.5592 10.5618 19.7057 10.5 19.875 10.5C20.0443 10.5 20.1908 10.5618 20.3145 10.6855C20.4382 10.8092 20.5 10.9557 20.5 11.125V12.375C20.5 12.5443 20.4382 12.6908 20.3145 12.8145C20.1908 12.9382 20.0443 13 19.875 13ZM12.375 19.5625H11.125C10.9557 19.5625 10.8092 19.5007 10.6855 19.377C10.5618 19.2533 10.5 19.1068 10.5 18.9375C10.5 18.7682 10.5618 18.6217 10.6855 18.498C10.8092 18.3743 10.9557 18.3125 11.125 18.3125H12.375C12.5443 18.3125 12.6908 18.3743 12.8145 18.498C12.9382 18.6217 13 18.7682 13 18.9375C13 19.1068 12.9382 19.2533 12.8145 19.377C12.6908 19.5007 12.5443 19.5625 12.375 19.5625ZM12.8926 22.1113C13.0618 22.1113 13.2083 22.1732 13.332 22.2969C13.4557 22.4206 13.5176 22.5703 13.5176 22.7461C13.5176 22.8763 13.4818 22.9902 13.4102 23.0879C13.3385 23.1855 13.2409 23.2637 13.1172 23.3223C13.0456 23.3548 12.9479 23.3971 12.8242 23.4492C12.7005 23.5013 12.5671 23.5566 12.4238 23.6152C12.2806 23.6738 12.1504 23.7227 12.0332 23.7617C11.916 23.8008 11.8118 23.8236 11.7207 23.8301C11.5514 23.8301 11.4049 23.7682 11.2812 23.6445C11.1576 23.5208 11.0957 23.3711 11.0957 23.1953C11.0957 23.0651 11.1315 22.9512 11.2031 22.8535C11.2747 22.7559 11.3724 22.6777 11.4961 22.6191C11.5677 22.5931 11.6654 22.5508 11.7891 22.4922C11.9128 22.4336 12.0462 22.3783 12.1895 22.3262C12.3327 22.2741 12.4629 22.2253 12.5801 22.1797C12.6973 22.1341 12.8014 22.1113 12.8926 22.1113ZM14.377 15.8125C14.377 15.9818 14.3151 16.1283 14.1914 16.252C14.0677 16.3757 13.9212 16.4375 13.752 16.4375C13.6348 16.4375 13.5273 16.4082 13.4297 16.3496L12.3652 15.6953C12.2741 15.6367 12.2025 15.5618 12.1504 15.4707C12.0983 15.3796 12.069 15.2754 12.0625 15.1582C12.0625 14.9889 12.1243 14.8424 12.248 14.7188C12.3717 14.5951 12.5182 14.5332 12.6875 14.5332C12.7917 14.5332 12.8991 14.5658 13.0098 14.6309L14.084 15.2754C14.1751 15.3275 14.2467 15.4023 14.2988 15.5C14.3509 15.5977 14.377 15.7018 14.377 15.8125ZM15.1875 12.2188C15.1875 12.0495 15.2493 11.903 15.373 11.7793C15.4967 11.6556 15.6432 11.5938 15.8125 11.5938C15.9232 11.5938 16.0273 11.623 16.125 11.6816C16.2227 11.7402 16.3008 11.8184 16.3594 11.916L16.9648 13.0098C17.0169 13.1009 17.043 13.1986 17.043 13.3027C17.043 13.4785 16.9811 13.6283 16.8574 13.752C16.7337 13.8757 16.5872 13.9375 16.418 13.9375C16.3073 13.9375 16.2031 13.9082 16.1055 13.8496C16.0078 13.791 15.9297 13.7129 15.8711 13.6152L15.2656 12.5215C15.2135 12.4303 15.1875 12.3294 15.1875 12.2188ZM28.625 18.3125C28.7943 18.3125 28.9408 18.3743 29.0645 18.498C29.1882 18.6217 29.25 18.7682 29.25 18.9375C29.25 19.1068 29.1882 19.2533 29.0645 19.377C28.9408 19.5007 28.7943 19.5625 28.625 19.5625H27.375C27.2057 19.5625 27.0592 19.5007 26.9355 19.377C26.8118 19.2533 26.75 19.1068 26.75 18.9375C26.75 18.7682 26.8118 18.6217 26.9355 18.498C27.0592 18.3743 27.2057 18.3125 27.375 18.3125H28.625ZM28.6445 23.2051C28.6445 23.3743 28.5827 23.5208 28.459 23.6445C28.3353 23.7682 28.1888 23.8301 28.0195 23.8301C27.9479 23.8301 27.8503 23.8105 27.7266 23.7715C27.6029 23.7324 27.4694 23.6803 27.3262 23.6152C27.1829 23.5501 27.0527 23.4948 26.9355 23.4492C26.8184 23.4036 26.7174 23.3581 26.6328 23.3125C26.5156 23.2604 26.4212 23.1823 26.3496 23.0781C26.278 22.974 26.2389 22.8568 26.2324 22.7266C26.2324 22.5508 26.2943 22.4043 26.418 22.2871C26.5417 22.1699 26.6914 22.1081 26.8672 22.1016C26.9453 22.1016 27.0462 22.1243 27.1699 22.1699C27.2936 22.2155 27.4238 22.2676 27.5605 22.3262C27.6973 22.3848 27.8275 22.4434 27.9512 22.502C28.0749 22.5605 28.1758 22.6029 28.2539 22.6289C28.3711 22.681 28.4655 22.7559 28.5371 22.8535C28.6087 22.9512 28.6445 23.0684 28.6445 23.2051ZM25.998 16.4375C25.8288 16.4375 25.6823 16.3757 25.5586 16.252C25.4349 16.1283 25.373 15.9818 25.373 15.8125C25.373 15.7018 25.3991 15.5977 25.4512 15.5C25.5033 15.4023 25.5749 15.3275 25.666 15.2754L26.7402 14.6309C26.8509 14.5658 26.9583 14.5332 27.0625 14.5332C27.2318 14.5332 27.3783 14.5951 27.502 14.7188C27.6257 14.8424 27.6875 14.9889 27.6875 15.1582C27.6875 15.2689 27.6615 15.3698 27.6094 15.4609C27.5573 15.5521 27.4824 15.6302 27.3848 15.6953L26.3203 16.3496C26.2227 16.4082 26.1152 16.4375 25.998 16.4375ZM22.707 13.3027C22.707 13.1986 22.7331 13.1009 22.7852 13.0098L23.3906 11.916C23.4427 11.8184 23.5176 11.7402 23.6152 11.6816C23.7129 11.623 23.8203 11.5938 23.9375 11.5938C24.1068 11.5938 24.2533 11.6556 24.377 11.7793C24.5007 11.903 24.5625 12.0495 24.5625 12.2188C24.5625 12.3294 24.5365 12.4303 24.4844 12.5215L23.8789 13.6152C23.8268 13.7129 23.752 13.791 23.6543 13.8496C23.5566 13.9082 23.4492 13.9375 23.332 13.9375C23.1628 13.9375 23.0163 13.8757 22.8926 13.752C22.7689 13.6283 22.707 13.4785 22.707 13.3027Z" fill="url(#paint1_linear_1_278)"/>
</g>
<defs>
<linearGradient id="paint0_linear_1_278" x1="20.5" y1="0.5" x2="20.5" y2="40.5" gradientUnits="userSpaceOnUse">
<stop stop-color="#BD2BF2"/>
<stop offset="1" stop-color="#8B5CF6"/>
</linearGradient>
<linearGradient id="paint1_linear_1_278" x1="19.875" y1="10.5" x2="19.875" y2="30.5" gradientUnits="userSpaceOnUse">
<stop stop-color="#BD2BF2"/>
<stop offset="1" stop-color="#8B5CF6"/>
</linearGradient>
<clipPath id="clip0_1_278">
<rect width="20" height="20" fill="white" transform="translate(10.5 10.5)"/>
</clipPath>
</defs>
</svg>
