<svg width="22" height="22" viewBox="0 0 22 22" fill="none" xmlns="http://www.w3.org/2000/svg">
<g clip-path="url(#clip0_2_1051)">
<path d="M3.95817 18.8247C5.16633 20.1667 7.1115 20.1667 11 20.1667C14.8885 20.1667 16.8337 20.1667 18.0418 18.8238C19.25 17.4827 19.25 15.3212 19.25 11C19.25 6.67887 19.25 4.51829 18.0418 3.17537C16.8337 1.83246 14.8885 1.83337 11 1.83337C7.1115 1.83337 5.16633 1.83337 3.95817 3.17537C2.75 4.51921 2.75 6.67887 2.75 11C2.75 15.3212 2.75 17.4827 3.95817 18.8247Z" stroke="black" stroke-width="0.75"/>
<path d="M6.41675 7.33333C6.41675 6.90708 6.41675 6.69442 6.4635 6.51933C6.52601 6.28638 6.6487 6.07397 6.81925 5.90341C6.9898 5.73286 7.20221 5.61018 7.43516 5.54767C7.61208 5.5 7.82475 5.5 8.25008 5.5H13.7501C14.1763 5.5 14.389 5.5 14.5641 5.54675C14.797 5.60926 15.0094 5.73195 15.18 5.9025C15.3506 6.07305 15.4732 6.28546 15.5357 6.51842C15.5834 6.69533 15.5834 6.908 15.5834 7.33333C15.5834 7.75867 15.5834 7.97225 15.5367 8.14733C15.4742 8.38029 15.3515 8.5927 15.1809 8.76325C15.0104 8.9338 14.798 9.05649 14.565 9.119C14.389 9.16667 14.1754 9.16667 13.7501 9.16667H8.25008C7.82383 9.16667 7.61117 9.16667 7.43608 9.11992C7.20313 9.05741 6.99071 8.93472 6.82016 8.76417C6.64961 8.59362 6.52692 8.3812 6.46441 8.14825C6.41675 7.97133 6.41675 7.75867 6.41675 7.33333Z" stroke="black" stroke-width="0.75"/>
<path d="M7.33341 12.8333C7.83968 12.8333 8.25008 12.4229 8.25008 11.9167C8.25008 11.4104 7.83968 11 7.33341 11C6.82715 11 6.41675 11.4104 6.41675 11.9167C6.41675 12.4229 6.82715 12.8333 7.33341 12.8333Z" fill="black"/>
<path d="M7.33341 16.5001C7.83968 16.5001 8.25008 16.0897 8.25008 15.5834C8.25008 15.0772 7.83968 14.6667 7.33341 14.6667C6.82715 14.6667 6.41675 15.0772 6.41675 15.5834C6.41675 16.0897 6.82715 16.5001 7.33341 16.5001Z" fill="black"/>
<path d="M10.9999 12.8333C11.5062 12.8333 11.9166 12.4229 11.9166 11.9167C11.9166 11.4104 11.5062 11 10.9999 11C10.4937 11 10.0833 11.4104 10.0833 11.9167C10.0833 12.4229 10.4937 12.8333 10.9999 12.8333Z" fill="black"/>
<path d="M10.9999 16.5001C11.5062 16.5001 11.9166 16.0897 11.9166 15.5834C11.9166 15.0772 11.5062 14.6667 10.9999 14.6667C10.4937 14.6667 10.0833 15.0772 10.0833 15.5834C10.0833 16.0897 10.4937 16.5001 10.9999 16.5001Z" fill="black"/>
<path d="M14.6667 12.8333C15.1729 12.8333 15.5833 12.4229 15.5833 11.9167C15.5833 11.4104 15.1729 11 14.6667 11C14.1604 11 13.75 11.4104 13.75 11.9167C13.75 12.4229 14.1604 12.8333 14.6667 12.8333Z" fill="black"/>
<path d="M14.6667 16.5001C15.1729 16.5001 15.5833 16.0897 15.5833 15.5834C15.5833 15.0772 15.1729 14.6667 14.6667 14.6667C14.1604 14.6667 13.75 15.0772 13.75 15.5834C13.75 16.0897 14.1604 16.5001 14.6667 16.5001Z" fill="black"/>
</g>
<defs>
<clipPath id="clip0_2_1051">
<rect width="22" height="22" fill="white"/>
</clipPath>
</defs>
</svg>
