<svg width="22" height="22" viewBox="0 0 22 22" fill="none" xmlns="http://www.w3.org/2000/svg">
<g clip-path="url(#clip0_2_1033)">
<path d="M17.4166 3.66671H15.5833V2.75004C15.5833 2.50693 15.4867 2.27377 15.3148 2.10186C15.1429 1.92995 14.9097 1.83337 14.6666 1.83337C14.4235 1.83337 14.1903 1.92995 14.0184 2.10186C13.8465 2.27377 13.7499 2.50693 13.7499 2.75004V3.66671H8.24992V2.75004C8.24992 2.50693 8.15334 2.27377 7.98143 2.10186C7.80953 1.92995 7.57637 1.83337 7.33325 1.83337C7.09014 1.83337 6.85698 1.92995 6.68507 2.10186C6.51316 2.27377 6.41659 2.50693 6.41659 2.75004V3.66671H4.58325C3.85391 3.66671 3.15443 3.95644 2.63871 4.47216C2.12298 4.98789 1.83325 5.68736 1.83325 6.41671V17.4167C1.83325 18.1461 2.12298 18.8455 2.63871 19.3613C3.15443 19.877 3.85391 20.1667 4.58325 20.1667H17.4166C18.1459 20.1667 18.8454 19.877 19.3611 19.3613C19.8769 18.8455 20.1666 18.1461 20.1666 17.4167V6.41671C20.1666 5.68736 19.8769 4.98789 19.3611 4.47216C18.8454 3.95644 18.1459 3.66671 17.4166 3.66671ZM18.3333 17.4167C18.3333 17.6598 18.2367 17.893 18.0648 18.0649C17.8929 18.2368 17.6597 18.3334 17.4166 18.3334H4.58325C4.34014 18.3334 4.10698 18.2368 3.93507 18.0649C3.76316 17.893 3.66659 17.6598 3.66659 17.4167V11H18.3333V17.4167ZM18.3333 9.16671H3.66659V6.41671C3.66659 6.17359 3.76316 5.94043 3.93507 5.76853C4.10698 5.59662 4.34014 5.50004 4.58325 5.50004H6.41659V6.41671C6.41659 6.65982 6.51316 6.89298 6.68507 7.06489C6.85698 7.2368 7.09014 7.33337 7.33325 7.33337C7.57637 7.33337 7.80953 7.2368 7.98143 7.06489C8.15334 6.89298 8.24992 6.65982 8.24992 6.41671V5.50004H13.7499V6.41671C13.7499 6.65982 13.8465 6.89298 14.0184 7.06489C14.1903 7.2368 14.4235 7.33337 14.6666 7.33337C14.9097 7.33337 15.1429 7.2368 15.3148 7.06489C15.4867 6.89298 15.5833 6.65982 15.5833 6.41671V5.50004H17.4166C17.6597 5.50004 17.8929 5.59662 18.0648 5.76853C18.2367 5.94043 18.3333 6.17359 18.3333 6.41671V9.16671Z" fill="#242424"/>
</g>
<defs>
<clipPath id="clip0_2_1033">
<rect width="22" height="22" fill="white"/>
</clipPath>
</defs>
</svg>
