<svg width="34" height="34" viewBox="0 0 34 34" fill="none" xmlns="http://www.w3.org/2000/svg">
<rect x="0.375" y="0.375" width="33" height="33" rx="16.5" fill="white"/>
<rect x="0.375" y="0.375" width="33" height="33" rx="16.5" stroke="url(#paint0_linear_2_1225)" stroke-width="0.75"/>
<g clip-path="url(#clip0_2_1225)">
<path d="M22.375 16.875C22.375 16.6678 22.3638 16.4639 22.3413 16.2631C22.3314 16.1734 22.3392 16.0826 22.3644 15.9959C22.3896 15.9091 22.4316 15.8282 22.488 15.7578C22.602 15.6154 22.7678 15.5242 22.9491 15.5041C23.1303 15.4841 23.3121 15.5368 23.4544 15.6508C23.5249 15.7072 23.5836 15.777 23.6271 15.8561C23.6706 15.9352 23.6981 16.0221 23.7081 16.1119C23.736 16.3626 23.75 16.617 23.75 16.875C23.75 20.6721 20.6721 23.75 16.875 23.75H11.375C11.0103 23.75 10.6606 23.6051 10.4027 23.3473C10.1449 23.0894 10 22.7397 10 22.375V16.875C10 13.0779 13.0779 10 16.875 10C17.133 10 17.3874 10.0138 17.6381 10.0413C17.8195 10.0613 17.9854 10.1526 18.0994 10.295C18.2135 10.4374 18.2663 10.6193 18.2462 10.8006C18.2262 10.9819 18.1349 11.1479 17.9925 11.2619C17.8501 11.3759 17.6682 11.4287 17.4869 11.4087C16.7177 11.3226 15.9391 11.3998 15.2018 11.6352C14.4646 11.8707 13.7853 12.259 13.2085 12.775C12.6316 13.2909 12.1701 13.9228 11.8541 14.6293C11.5382 15.3358 11.3749 16.1011 11.375 16.875V22.375H16.875C18.3337 22.375 19.7326 21.7955 20.7641 20.7641C21.7955 19.7326 22.375 18.3337 22.375 16.875ZM16.875 18.25C17.0573 18.25 17.2322 18.3224 17.3611 18.4514C17.4901 18.5803 17.5625 18.7552 17.5625 18.9375C17.5625 19.1198 17.4901 19.2947 17.3611 19.4236C17.2322 19.5526 17.0573 19.625 16.875 19.625H14.8125C14.6302 19.625 14.4553 19.5526 14.3264 19.4236C14.1974 19.2947 14.125 19.1198 14.125 18.9375C14.125 18.7552 14.1974 18.5803 14.3264 18.4514C14.4553 18.3224 14.6302 18.25 14.8125 18.25H16.875ZM18.9375 15.5C19.1198 15.5 19.2947 15.5724 19.4236 15.7014C19.5526 15.8303 19.625 16.0052 19.625 16.1875C19.625 16.3698 19.5526 16.5447 19.4236 16.6736C19.2947 16.8026 19.1198 16.875 18.9375 16.875H14.8125C14.6302 16.875 14.4553 16.8026 14.3264 16.6736C14.1974 16.5447 14.125 16.3698 14.125 16.1875C14.125 16.0052 14.1974 15.8303 14.3264 15.7014C14.4553 15.5724 14.6302 15.5 14.8125 15.5H18.9375ZM21.6875 9.3125C21.8309 9.31256 21.9707 9.35746 22.0873 9.44092C22.204 9.52438 22.2916 9.64222 22.3379 9.77794L22.4272 10.0378C22.6335 10.6421 23.1079 11.1172 23.7129 11.3234L23.9721 11.4121C24.1076 11.4586 24.2253 11.5462 24.3086 11.6629C24.3919 11.7795 24.4367 11.9192 24.4367 12.0625C24.4367 12.2058 24.3919 12.3455 24.3086 12.4621C24.2253 12.5788 24.1076 12.6664 23.9721 12.7129L23.7122 12.8023C23.1079 13.0085 22.6328 13.4829 22.4266 14.0879L22.3379 14.3471C22.2914 14.4826 22.2038 14.6003 22.0871 14.6836C21.9705 14.7669 21.8308 14.8117 21.6875 14.8117C21.5442 14.8117 21.4045 14.7669 21.2879 14.6836C21.1712 14.6003 21.0836 14.4826 21.0371 14.3471L20.9478 14.0872C20.8459 13.7889 20.6771 13.5179 20.4542 13.2951C20.2314 13.0722 19.9604 12.9034 19.6621 12.8016L19.4029 12.7129C19.2674 12.6664 19.1497 12.5788 19.0664 12.4621C18.9831 12.3455 18.9383 12.2058 18.9383 12.0625C18.9383 11.9192 18.9831 11.7795 19.0664 11.6629C19.1497 11.5462 19.2674 11.4586 19.4029 11.4121L19.6628 11.3228C20.2671 11.1165 20.7422 10.6421 20.9484 10.0371L21.0371 9.77794L21.0797 9.67756C21.1383 9.56724 21.2259 9.47497 21.3329 9.41065C21.44 9.34633 21.5626 9.3124 21.6875 9.3125ZM21.6875 11.5098C21.5249 11.7144 21.3394 11.8999 21.1347 12.0625C21.3405 12.2252 21.5248 12.4092 21.6875 12.6146C21.8507 12.4097 22.0347 12.2257 22.2396 12.0625C22.0351 11.8998 21.8499 11.7144 21.6875 11.5098Z" fill="url(#paint1_linear_2_1225)"/>
</g>
<defs>
<linearGradient id="paint0_linear_2_1225" x1="16.875" y1="0.375" x2="16.875" y2="33.375" gradientUnits="userSpaceOnUse">
<stop stop-color="#BD2BF2"/>
<stop offset="1" stop-color="#8B5CF6"/>
</linearGradient>
<linearGradient id="paint1_linear_2_1225" x1="17.2183" y1="9.3125" x2="17.2183" y2="23.75" gradientUnits="userSpaceOnUse">
<stop stop-color="#BD2BF2"/>
<stop offset="1" stop-color="#8B5CF6"/>
</linearGradient>
<clipPath id="clip0_2_1225">
<rect width="16.5" height="16.5" fill="white" transform="translate(8.625 8.625)"/>
</clipPath>
</defs>
</svg>
