<svg width="15" height="15" viewBox="0 0 15 15" fill="none" xmlns="http://www.w3.org/2000/svg">
<path d="M4.58333 14.6667C3.31406 14.6667 2.233 14.2203 1.34017 13.3274C0.447333 12.4346 0.000611111 11.3532 0 10.0833V4.58333C0 3.31406 0.446722 2.233 1.34017 1.34017C2.23361 0.447333 3.31467 0.000611111 4.58333 0H10.0833C11.3526 0 12.434 0.446722 13.3274 1.34017C14.2209 2.23361 14.6673 3.31467 14.6667 4.58333V10.0833C14.6667 11.3526 14.2203 12.434 13.3274 13.3274C12.4346 14.2209 11.3532 14.6673 10.0833 14.6667H4.58333ZM6.41667 9.06767L4.7245 7.3755C4.63894 7.28994 4.53383 7.24411 4.40917 7.238C4.2845 7.23189 4.17328 7.27772 4.0755 7.3755C3.97772 7.47328 3.92883 7.58144 3.92883 7.7C3.92883 7.81856 3.97772 7.92672 4.0755 8.0245L5.89783 9.84683C6.04633 9.99472 6.21928 10.0687 6.41667 10.0687C6.61406 10.0687 6.787 9.99472 6.9355 9.84683L10.9578 5.8245C11.0434 5.73894 11.0892 5.63383 11.0953 5.50917C11.1014 5.3845 11.0556 5.27328 10.9578 5.1755C10.8601 5.07772 10.7519 5.02883 10.6333 5.02883C10.5148 5.02883 10.4066 5.07772 10.3088 5.1755L6.41667 9.06767ZM4.58333 13.75H10.0833C11.0917 13.75 11.9549 13.391 12.6729 12.6729C13.391 11.9549 13.75 11.0917 13.75 10.0833V4.58333C13.75 3.575 13.391 2.71181 12.6729 1.99375C11.9549 1.27569 11.0917 0.916667 10.0833 0.916667H4.58333C3.575 0.916667 2.71181 1.27569 1.99375 1.99375C1.27569 2.71181 0.916667 3.575 0.916667 4.58333V10.0833C0.916667 11.0917 1.27569 11.9549 1.99375 12.6729C2.71181 13.391 3.575 13.75 4.58333 13.75Z" fill="url(#paint0_linear_1_646)"/>
<defs>
<linearGradient id="paint0_linear_1_646" x1="7.33333" y1="0" x2="7.33333" y2="14.6667" gradientUnits="userSpaceOnUse">
<stop stop-color="#BD2BF2"/>
<stop offset="1" stop-color="#8B5CF6"/>
</linearGradient>
</defs>
</svg>
