<svg width="22" height="22" viewBox="0 0 22 22" fill="none" xmlns="http://www.w3.org/2000/svg">
<g clip-path="url(#clip0_2_791)">
<path d="M4.14646 17.1016C4.14646 17.4818 4.45369 17.7891 4.83396 17.7891H17.166C17.5463 17.7891 17.8535 17.4818 17.8535 17.1016V12.0957C17.8535 8.31016 14.7855 5.24219 11 5.24219C7.21443 5.24219 4.14646 8.31016 4.14646 12.0957V17.1016ZM5.69334 12.0957C5.69334 9.16523 8.06951 6.78906 11 6.78906C13.9304 6.78906 16.3066 9.16523 16.3066 12.0957V16.2422H8.67967V12.5684C8.67967 12.4502 8.58299 12.3535 8.46482 12.3535H7.51951C7.40135 12.3535 7.30467 12.4502 7.30467 12.5684V16.2422H5.69334V12.0957ZM4.65994 6.6709L5.51072 5.82012C5.57732 5.75352 5.57732 5.64395 5.51072 5.57734L4.05193 4.11855C4.01963 4.08657 3.97601 4.06862 3.93055 4.06862C3.88508 4.06862 3.84146 4.08657 3.80916 4.11855L2.95838 4.96934C2.92639 5.00164 2.90845 5.04526 2.90845 5.09072C2.90845 5.13618 2.92639 5.17981 2.95838 5.21211L4.41717 6.6709C4.48377 6.7375 4.59119 6.7375 4.65994 6.6709ZM19.0459 4.96934L18.1951 4.11855C18.1628 4.08657 18.1192 4.06862 18.0737 4.06862C18.0282 4.06862 17.9846 4.08657 17.9523 4.11855L16.4935 5.57734C16.4615 5.60965 16.4436 5.65327 16.4436 5.69873C16.4436 5.74419 16.4615 5.78781 16.4935 5.82012L17.3443 6.6709C17.4109 6.7375 17.5205 6.7375 17.5871 6.6709L19.0459 5.21211C19.1125 5.14336 19.1125 5.03594 19.0459 4.96934ZM17.875 19.1641H4.12498C3.74471 19.1641 3.43748 19.4713 3.43748 19.8516V20.3672C3.43748 20.4617 3.51482 20.5391 3.60935 20.5391H18.3906C18.4851 20.5391 18.5625 20.4617 18.5625 20.3672V19.8516C18.5625 19.4713 18.2553 19.1641 17.875 19.1641ZM10.3984 3.86719H11.6015C11.6961 3.86719 11.7734 3.78984 11.7734 3.69531V1.63281C11.7734 1.53828 11.6961 1.46094 11.6015 1.46094H10.3984C10.3039 1.46094 10.2265 1.53828 10.2265 1.63281V3.69531C10.2265 3.78984 10.3039 3.86719 10.3984 3.86719Z" fill="black"/>
</g>
<defs>
<clipPath id="clip0_2_791">
<rect width="22" height="22" fill="currentColor"/>
</clipPath>
</defs>
</svg>
