<svg width="41" height="41" viewBox="0 0 41 41" fill="none" xmlns="http://www.w3.org/2000/svg">
<rect x="0.5" y="0.5" width="40" height="40" rx="12" fill="white"/>
<rect x="0.5" y="0.5" width="40" height="40" rx="12" stroke="#C4C4C4"/>
<g clip-path="url(#clip0_1_282)">
<path d="M13.6465 26.6016C13.6465 26.9818 13.9537 27.2891 14.334 27.2891H26.666C27.0463 27.2891 27.3535 26.9818 27.3535 26.6016V21.5957C27.3535 17.8102 24.2856 14.7422 20.5 14.7422C16.7145 14.7422 13.6465 17.8102 13.6465 21.5957V26.6016ZM15.1934 21.5957C15.1934 18.6652 17.5695 16.2891 20.5 16.2891C23.4305 16.2891 25.8067 18.6652 25.8067 21.5957V25.7422H18.1797V22.0684C18.1797 21.9502 18.083 21.8535 17.9649 21.8535H17.0195C16.9014 21.8535 16.8047 21.9502 16.8047 22.0684V25.7422H15.1934V21.5957ZM14.16 16.1709L15.0108 15.3201C15.0774 15.2535 15.0774 15.1439 15.0108 15.0773L13.552 13.6186C13.5197 13.5866 13.476 13.5686 13.4306 13.5686C13.3851 13.5686 13.3415 13.5866 13.3092 13.6186L12.4584 14.4693C12.4264 14.5016 12.4085 14.5453 12.4085 14.5907C12.4085 14.6362 12.4264 14.6798 12.4584 14.7121L13.9172 16.1709C13.9838 16.2375 14.0912 16.2375 14.16 16.1709ZM28.5459 14.4693L27.6951 13.6186C27.6628 13.5866 27.6192 13.5686 27.5737 13.5686C27.5283 13.5686 27.4847 13.5866 27.4524 13.6186L25.9936 15.0773C25.9616 15.1096 25.9436 15.1533 25.9436 15.1987C25.9436 15.2442 25.9616 15.2878 25.9936 15.3201L26.8443 16.1709C26.9109 16.2375 27.0205 16.2375 27.0871 16.1709L28.5459 14.7121C28.6125 14.6434 28.6125 14.5359 28.5459 14.4693ZM27.375 28.6641H13.625C13.2447 28.6641 12.9375 28.9713 12.9375 29.3516V29.8672C12.9375 29.9617 13.0149 30.0391 13.1094 30.0391H27.8906C27.9852 30.0391 28.0625 29.9617 28.0625 29.8672V29.3516C28.0625 28.9713 27.7553 28.6641 27.375 28.6641ZM19.8984 13.3672H21.1016C21.1961 13.3672 21.2734 13.2898 21.2734 13.1953V11.1328C21.2734 11.0383 21.1961 10.9609 21.1016 10.9609H19.8984C19.8039 10.9609 19.7266 11.0383 19.7266 11.1328V13.1953C19.7266 13.2898 19.8039 13.3672 19.8984 13.3672Z" fill="black"/>
</g>
<defs>
<clipPath id="clip0_1_282">
<rect width="22" height="22" fill="white" transform="translate(9.5 9.5)"/>
</clipPath>
</defs>
</svg>
