<svg width="22" height="22" viewBox="0 0 22 22" fill="none" xmlns="http://www.w3.org/2000/svg">
<g clip-path="url(#clip0_1_345)">
<path d="M11 5.04165L10.505 5.51832C10.5691 5.58486 10.646 5.63778 10.7311 5.67393C10.8161 5.71008 10.9076 5.72871 11 5.72871C11.0924 5.72871 11.1839 5.71008 11.2689 5.67393C11.354 5.63778 11.4309 5.58486 11.495 5.51832L11 5.04165ZM8.64051 16.7952C7.25084 15.6997 5.73193 14.63 4.52651 13.2733C3.34584 11.9423 2.52084 10.3904 2.52084 8.37557H1.14584C1.14584 10.8194 2.16334 12.6839 3.49893 14.1863C4.80976 15.6622 6.48176 16.8447 7.78893 17.875L8.64051 16.7952ZM2.52084 8.37557C2.52084 6.40474 3.63459 4.75107 5.15534 4.05532C6.63301 3.37974 8.61851 3.55849 10.505 5.51832L11.495 4.5659C9.25834 2.24032 6.65868 1.85624 4.58334 2.80499C2.55384 3.73357 1.14584 5.88957 1.14584 8.37557H2.52084ZM7.78893 17.875C8.25918 18.2453 8.76334 18.6395 9.27393 18.9383C9.78451 19.2372 10.3675 19.4792 11 19.4792V18.1042C10.7158 18.1042 10.3822 17.9942 9.96784 17.7512C9.55259 17.5092 9.12268 17.1756 8.64051 16.7952L7.78893 17.875ZM14.2111 17.875C15.5183 16.8437 17.1903 15.6631 18.5011 14.1863C19.8367 12.683 20.8542 10.8194 20.8542 8.37557H19.4792C19.4792 10.3904 18.6542 11.9423 17.4735 13.2733C16.2681 14.63 14.7492 15.6997 13.3595 16.7952L14.2111 17.875ZM20.8542 8.37557C20.8542 5.88957 19.4471 3.73357 17.4167 2.80499C15.3413 1.85624 12.7435 2.24032 10.505 4.56499L11.495 5.51832C13.3815 3.5594 15.367 3.37974 16.8447 4.05532C18.3654 4.75107 19.4792 6.40382 19.4792 8.37557H20.8542ZM13.3595 16.7952C12.8773 17.1756 12.4474 17.5092 12.0322 17.7512C11.6169 17.9932 11.2842 18.1042 11 18.1042V19.4792C11.6325 19.4792 12.2155 19.2362 12.7261 18.9383C13.2376 18.6395 13.7408 18.2453 14.2111 17.875L13.3595 16.7952Z" fill="black"/>
</g>
<defs>
<clipPath id="clip0_1_345">
<rect width="22" height="22" fill="white"/>
</clipPath>
</defs>
</svg>
