<svg width="22" height="22" viewBox="0 0 22 22" fill="none" xmlns="http://www.w3.org/2000/svg">
<g clip-path="url(#clip0_1_353)">
<path d="M12.375 7.33337H15.125L12.375 10.0834H15.125M16.5 1.83337H20.1667L16.5 5.50004H20.1667" stroke="black" stroke-width="0.75" stroke-linecap="round" stroke-linejoin="round"/>
<path d="M19.4791 11C19.4791 13.2489 18.5858 15.4056 16.9957 16.9957C15.4055 18.5859 13.2488 19.4792 11 19.4792V20.8542C16.4422 20.8542 20.8541 16.4423 20.8541 11H19.4791ZM11 19.4792C8.75116 19.4792 6.59446 18.5859 5.0043 16.9957C3.41415 15.4056 2.52081 13.2489 2.52081 11H1.14581C1.14581 16.4423 5.55773 20.8542 11 20.8542V19.4792ZM2.52081 11C2.52081 8.75123 3.41415 6.59452 5.0043 5.00436C6.59446 3.41421 8.75116 2.52087 11 2.52087V1.14587C5.55773 1.14587 1.14581 5.55779 1.14581 11H2.52081ZM14.2083 13.0625C12.8104 13.0625 11.4697 12.5072 10.4813 11.5187C9.4928 10.5303 8.93748 9.18962 8.93748 7.79171H7.56248C7.56248 9.55429 8.26266 11.2447 9.509 12.491C10.7553 13.7374 12.4457 14.4375 14.2083 14.4375V13.0625ZM18.7229 10.5133C18.2538 11.2912 17.5917 11.9347 16.8007 12.3814C16.0097 12.828 15.1167 13.0627 14.2083 13.0625V14.4375C15.3536 14.4379 16.4795 14.1422 17.4769 13.5793C18.4743 13.0164 19.3092 12.2053 19.9008 11.2246L18.7229 10.5133ZM8.93748 7.79171C8.93735 6.88331 9.17199 5.99031 9.61865 5.19931C10.0653 4.40831 10.7088 3.74617 11.4867 3.27712L10.7754 2.10012C9.79489 2.69163 8.98385 3.52646 8.42093 4.52366C7.85801 5.52086 7.5623 6.64659 7.56248 7.79171H8.93748ZM11 2.52087C10.9539 2.51999 10.9085 2.50997 10.8663 2.4914C10.8241 2.47284 10.7861 2.44609 10.7543 2.41271C10.7157 2.37389 10.6895 2.32441 10.6791 2.27062C10.6755 2.24221 10.6773 2.15971 10.7754 2.10012L11.4867 3.27712C11.9478 2.99846 12.0963 2.48787 12.0422 2.08637C11.9854 1.66929 11.6572 1.14587 11 1.14587V2.52087ZM19.9008 11.2246C19.8403 11.3227 19.7578 11.3245 19.7294 11.3209C19.6756 11.3105 19.6261 11.2844 19.5873 11.2457C19.5539 11.2139 19.5272 11.1759 19.5086 11.1337C19.49 11.0915 19.48 11.0461 19.4791 11H20.8541C20.8541 10.3428 20.3307 10.0146 19.9136 9.95779C19.5121 9.90371 19.0016 10.0522 18.7229 10.5133L19.9008 11.2246Z" fill="black"/>
</g>
<defs>
<clipPath id="clip0_1_353">
<rect width="22" height="22" fill="white"/>
</clipPath>
</defs>
</svg>
