<svg width="24" height="24" viewBox="0 0 24 24" fill="none" xmlns="http://www.w3.org/2000/svg">
<g clip-path="url(#clip0_1_337)">
<path d="M19.4 9.37495L18.712 8.68695L19.192 8.18095C19.3206 8.05295 19.385 7.90861 19.385 7.74795C19.385 7.58795 19.3206 7.44361 19.192 7.31495L16.684 4.80795C16.556 4.67995 16.412 4.61595 16.252 4.61595C16.092 4.61595 15.9476 4.67995 15.819 4.80795L15.313 5.28795L14.6 4.57495L15.158 3.99195C15.4513 3.69861 15.811 3.55628 16.237 3.56495C16.663 3.57361 17.0226 3.72428 17.316 4.01695L19.983 6.68495C20.2763 6.97828 20.423 7.33361 20.423 7.75095C20.423 8.16828 20.2763 8.52361 19.983 8.81695L19.4 9.37495ZM8.84197 19.9579C8.54864 20.2513 8.1933 20.3979 7.77597 20.3979C7.35864 20.3979 7.0033 20.2513 6.70997 19.9579L4.11997 17.3679C3.8133 17.0613 3.65997 16.6799 3.65997 16.2239C3.65997 15.7679 3.8133 15.3869 4.11997 15.0809L4.59997 14.5999L5.31397 15.3139L4.82697 15.7939C4.69897 15.9226 4.63497 16.0669 4.63497 16.2269C4.63497 16.3869 4.69897 16.5313 4.82697 16.6599L7.34097 19.1729C7.46897 19.3016 7.61297 19.3659 7.77297 19.3659C7.93297 19.3659 8.0773 19.3016 8.20597 19.1729L8.68597 18.6869L9.39997 19.3999L8.84197 19.9579ZM18.575 13.1539L19.712 12.0169C19.84 11.8889 19.904 11.7416 19.904 11.5749C19.904 11.4083 19.84 11.2609 19.712 11.1329L12.867 4.28895C12.739 4.16028 12.5916 4.09595 12.425 4.09595C12.2583 4.09595 12.111 4.15995 11.983 4.28795L10.846 5.42495C10.718 5.55295 10.654 5.69728 10.654 5.85795C10.654 6.01795 10.718 6.16228 10.846 6.29095L17.71 13.1539C17.838 13.2819 17.982 13.3459 18.142 13.3459C18.302 13.3459 18.4463 13.2819 18.575 13.1539ZM12.017 19.7119L13.154 18.5689C13.282 18.4409 13.346 18.2969 13.346 18.1369C13.346 17.9769 13.282 17.8326 13.154 17.7039L6.29597 10.8459C6.16797 10.7179 6.02364 10.6539 5.86297 10.6539C5.70297 10.6539 5.55897 10.7179 5.43097 10.8459L4.28797 11.9829C4.15997 12.1109 4.09597 12.2583 4.09597 12.4249C4.09597 12.5916 4.15997 12.7389 4.28797 12.8669L11.133 19.7109C11.261 19.8396 11.4083 19.9039 11.575 19.9039C11.7416 19.9039 11.889 19.8399 12.017 19.7119ZM11.309 14.4389L14.444 11.3089L12.69 9.55595L9.56097 12.6909L11.309 14.4389ZM12.711 20.4189C12.405 20.7256 12.0263 20.8789 11.575 20.8789C11.1236 20.8789 10.7446 20.7256 10.438 20.4189L3.58097 13.5619C3.27431 13.2553 3.12097 12.8763 3.12097 12.4249C3.12097 11.9736 3.27431 11.5949 3.58097 11.2889L4.71697 10.1329C5.02364 9.82628 5.40497 9.67295 5.86097 9.67295C6.31697 9.67295 6.69797 9.82628 7.00397 10.1329L8.84797 11.9769L11.983 8.84195L10.139 7.00395C9.8323 6.69728 9.67897 6.31528 9.67897 5.85795C9.67897 5.40061 9.8323 5.01861 10.139 4.71195L11.294 3.55595C11.6006 3.24928 11.9816 3.09595 12.437 3.09595C12.8923 3.09595 13.2736 3.24928 13.581 3.55595L20.444 10.4189C20.7506 10.7256 20.904 11.1069 20.904 11.5629C20.904 12.0189 20.7506 12.3999 20.444 12.7059L19.289 13.8619C18.9823 14.1686 18.6 14.3219 18.142 14.3219C17.684 14.3219 17.302 14.1686 16.996 13.8619L15.158 12.0169L12.023 15.1519L13.867 16.9959C14.1736 17.3026 14.327 17.6839 14.327 18.1399C14.327 18.5959 14.1736 18.9769 13.867 19.2829L12.711 20.4189Z" fill="black"/>
</g>
<defs>
<clipPath id="clip0_1_337">
<rect width="24" height="24" fill="white"/>
</clipPath>
</defs>
</svg>
