<svg width="22" height="22" viewBox="0 0 22 22" fill="none" xmlns="http://www.w3.org/2000/svg">

<g clip-path="url(#clip0_1_328)">

<path d="M13.3695 11.0687C13.6058 10.6806 13.8501 10.2793 14.0914 9.86558C14.8989 8.48121 15.0471 7.08631 14.532 5.71956C13.4925 2.96192 10.0178 1.28171 9.2134 1.01363L8.64776 0.824951L7.76492 2.59097L8.19095 2.93901C8.19572 2.94284 8.66894 3.35633 8.70048 3.98315C8.72742 4.51824 8.43407 5.09647 7.82881 5.7019C7.40849 6.12218 6.94718 6.52858 6.45876 6.95878C4.40373 8.76854 2.07452 10.8203 2.07452 14.7019C2.07452 14.7552 2.07503 14.8082 2.07603 14.8609C2.09092 15.7174 2.27488 16.5626 2.61735 17.3478C2.95983 18.1331 3.45406 18.8429 4.07167 19.4366C5.31185 20.6428 6.97469 21.3161 8.70473 21.3125H12.6622L12.1736 20.3211C10.1888 16.2927 11.5924 13.9874 13.3695 11.0687ZM8.70473 19.9375C5.8602 19.9375 3.50336 17.6486 3.45077 14.8354C3.44997 14.7911 3.44955 14.7466 3.44952 14.7019C3.44952 11.4415 5.44138 9.68687 7.36767 7.99016C7.8506 7.56477 8.35002 7.12486 8.80107 6.67373C9.69284 5.782 10.121 4.85336 10.0738 3.91376C10.0531 3.51558 9.94738 3.12644 9.76378 2.77251C10.96 3.42611 12.6652 4.66541 13.2454 6.20472C13.6125 7.17861 13.5008 8.14949 12.9038 9.17296C12.6689 9.57554 12.428 9.97115 12.1951 10.3538C10.49 13.154 8.87261 15.81 10.4999 19.9375H8.70473Z" fill="currentColor"/>

<path d="M20.1198 14.6578C20.1084 14.6124 20.0964 14.5668 20.084 14.521C19.5879 12.702 16.8417 10.3632 16.5302 10.1025L15.9047 9.5791L15.4945 10.2841C14.5598 11.8912 13.7577 13.3569 13.408 15.0198C13.0093 16.9162 13.2777 18.8436 14.2287 20.9121L14.4127 21.3125H14.8801C15.7034 21.3148 16.5162 21.1281 17.2559 20.7668C17.9957 20.4055 18.6426 19.8792 19.1469 19.2285C19.6481 18.5919 19.9964 17.8488 20.1651 17.0563C20.3338 16.2639 20.3183 15.4433 20.1198 14.6578ZM18.0625 18.3825C17.7292 18.8127 17.3119 19.1706 16.8358 19.4343C16.3598 19.6981 15.8351 19.8621 15.2936 19.9165C13.9383 16.6552 14.7379 14.4322 16.266 11.7046C17.2818 12.6496 18.5199 14.0115 18.7574 14.8826C18.7674 14.9193 18.777 14.9559 18.7862 14.9923C18.9331 15.5751 18.9442 16.1838 18.8188 16.7716C18.6933 17.3594 18.4346 17.9105 18.0625 18.3825Z" fill="currentColor"/>

</g>

<defs>

<clipPath id="clip0_1_328">

<rect width="22" height="22" fill="white"/>

</clipPath>

</defs>

</svg>