<svg width="20" height="18" viewBox="0 0 20 18" fill="none" xmlns="http://www.w3.org/2000/svg">

<path d="M9.85417 2.71866L9.35917 3.19532C9.4233 3.26186 9.50019 3.31479 9.58524 3.35093C9.67029 3.38708 9.76175 3.40572 9.85417 3.40572C9.94658 3.40572 10.038 3.38708 10.1231 3.35093C10.2081 3.31479 10.285 3.26186 10.3492 3.19532L9.85417 2.71866ZM7.49467 14.4722C6.105 13.3767 4.58608 12.307 3.38067 10.9503C2.2 9.61932 1.375 8.06741 1.375 6.05257H0C0 8.49641 1.0175 10.3609 2.35308 11.8633C3.66392 13.3392 5.33592 14.5217 6.64308 15.552L7.49467 14.4722ZM1.375 6.05257C1.375 4.08174 2.48875 2.42807 4.0095 1.73232C5.48717 1.05674 7.47267 1.23549 9.35917 3.19532L10.3492 2.24291C8.1125 -0.0826774 5.51283 -0.466761 3.4375 0.481989C1.408 1.41057 0 3.56657 0 6.05257H1.375ZM6.64308 15.552C7.11333 15.9223 7.6175 16.3165 8.12808 16.6153C8.63867 16.9142 9.22167 17.1562 9.85417 17.1562V15.7812C9.57 15.7812 9.23633 15.6712 8.822 15.4282C8.40675 15.1862 7.97683 14.8526 7.49467 14.4722L6.64308 15.552ZM13.0653 15.552C14.3724 14.5207 16.0444 13.3401 17.3553 11.8633C18.6908 10.36 19.7083 8.49641 19.7083 6.05257H18.3333C18.3333 8.06741 17.5083 9.61932 16.3277 10.9503C15.1223 12.307 13.6033 13.3767 12.2137 14.4722L13.0653 15.552ZM19.7083 6.05257C19.7083 3.56657 18.3013 1.41057 16.2708 0.481989C14.1955 -0.466761 11.5977 -0.0826774 9.35917 2.24199L10.3492 3.19532C12.2357 1.23641 14.2212 1.05674 15.6988 1.73232C17.2196 2.42807 18.3333 4.08082 18.3333 6.05257H19.7083ZM12.2137 14.4722C11.7315 14.8526 11.3016 15.1862 10.8863 15.4282C10.4711 15.6702 10.1383 15.7812 9.85417 15.7812V17.1562C10.4867 17.1562 11.0697 16.9132 11.5803 16.6153C12.0918 16.3165 12.595 15.9223 13.0653 15.552L12.2137 14.4722Z" fill="currentColor"/>

</svg>