<svg width="22" height="22" viewBox="0 0 22 22" fill="none" xmlns="http://www.w3.org/2000/svg">
<g clip-path="url(#clip0_1_681)">
<path d="M10.9999 1.83337C11.243 1.83337 11.4762 1.92995 11.6481 2.10186C11.82 2.27377 11.9166 2.50693 11.9166 2.75004V5.50004C11.9166 5.74316 11.82 5.97631 11.6481 6.14822C11.4762 6.32013 11.243 6.41671 10.9999 6.41671C10.7568 6.41671 10.5236 6.32013 10.3517 6.14822C10.1798 5.97631 10.0833 5.74316 10.0833 5.50004V2.75004C10.0833 2.50693 10.1798 2.27377 10.3517 2.10186C10.5236 1.92995 10.7568 1.83337 10.9999 1.83337ZM10.9999 15.5834C11.243 15.5834 11.4762 15.68 11.6481 15.8519C11.82 16.0238 11.9166 16.2569 11.9166 16.5V19.25C11.9166 19.4932 11.82 19.7263 11.6481 19.8982C11.4762 20.0701 11.243 20.1667 10.9999 20.1667C10.7568 20.1667 10.5236 20.0701 10.3517 19.8982C10.1798 19.7263 10.0833 19.4932 10.0833 19.25V16.5C10.0833 16.2569 10.1798 16.0238 10.3517 15.8519C10.5236 15.68 10.7568 15.5834 10.9999 15.5834ZM20.1666 11C20.1666 11.2432 20.07 11.4763 19.8981 11.6482C19.7262 11.8201 19.493 11.9167 19.2499 11.9167H16.4999C16.2568 11.9167 16.0236 11.8201 15.8517 11.6482C15.6798 11.4763 15.5833 11.2432 15.5833 11C15.5833 10.7569 15.6798 10.5238 15.8517 10.3519C16.0236 10.18 16.2568 10.0834 16.4999 10.0834H19.2499C19.493 10.0834 19.7262 10.18 19.8981 10.3519C20.07 10.5238 20.1666 10.7569 20.1666 11ZM6.41659 11C6.41659 11.2432 6.32001 11.4763 6.1481 11.6482C5.97619 11.8201 5.74303 11.9167 5.49992 11.9167H2.74992C2.5068 11.9167 2.27365 11.8201 2.10174 11.6482C1.92983 11.4763 1.83325 11.2432 1.83325 11C1.83325 10.7569 1.92983 10.5238 2.10174 10.3519C2.27365 10.18 2.5068 10.0834 2.74992 10.0834H5.49992C5.74303 10.0834 5.97619 10.18 6.1481 10.3519C6.32001 10.5238 6.41659 10.7569 6.41659 11ZM17.4817 17.4818C17.3098 17.6536 17.0767 17.7502 16.8336 17.7502C16.5905 17.7502 16.3574 17.6536 16.1855 17.4818L14.2413 15.5375C14.0743 15.3647 13.9819 15.1331 13.984 14.8928C13.9861 14.6524 14.0825 14.4225 14.2524 14.2525C14.4224 14.0826 14.6523 13.9862 14.8926 13.9841C15.133 13.982 15.3645 14.0744 15.5374 14.2414L17.4817 16.1847C17.5669 16.2698 17.6345 16.3709 17.6806 16.4822C17.7268 16.5935 17.7505 16.7128 17.7505 16.8333C17.7505 16.9537 17.7268 17.073 17.6806 17.1843C17.6345 17.2956 17.5669 17.3967 17.4817 17.4818ZM7.75858 7.75871C7.58668 7.93056 7.35357 8.02709 7.1105 8.02709C6.86743 8.02709 6.63432 7.93056 6.46242 7.75871L4.51909 5.81537C4.34708 5.64349 4.2504 5.41032 4.25032 5.16716C4.25023 4.92399 4.34674 4.69075 4.51863 4.51875C4.69051 4.34675 4.92368 4.25007 5.16684 4.24998C5.41001 4.24989 5.64325 4.34641 5.81525 4.51829L7.75858 6.46254C7.93043 6.63444 8.02697 6.86756 8.02697 7.11062C8.02697 7.35369 7.93043 7.58681 7.75858 7.75871ZM4.51909 17.4818C4.34724 17.3099 4.2507 17.0768 4.2507 16.8337C4.2507 16.5906 4.34724 16.3575 4.51909 16.1856L6.46334 14.2414C6.63622 14.0744 6.86777 13.982 7.10812 13.9841C7.34847 13.9862 7.57838 14.0826 7.74834 14.2525C7.91829 14.4225 8.0147 14.6524 8.01679 14.8928C8.01888 15.1331 7.92648 15.3647 7.7595 15.5375L5.81617 17.4818C5.73103 17.567 5.62994 17.6346 5.51866 17.6808C5.40737 17.7269 5.28809 17.7506 5.16763 17.7506C5.04716 17.7506 4.92788 17.7269 4.8166 17.6808C4.70532 17.6346 4.60422 17.567 4.51909 17.4818ZM14.2413 7.75871C14.0694 7.58681 13.9729 7.35369 13.9729 7.11062C13.9729 6.86756 14.0694 6.63444 14.2413 6.46254L16.1846 4.51829C16.2697 4.43312 16.3707 4.36555 16.482 4.31944C16.5932 4.27332 16.7124 4.24956 16.8328 4.24952C16.9532 4.24948 17.0724 4.27315 17.1837 4.31919C17.2949 4.36523 17.396 4.43272 17.4812 4.51783C17.5664 4.60294 17.6339 4.70399 17.6801 4.81521C17.7262 4.92643 17.7499 5.04565 17.75 5.16605C17.75 5.28645 17.7263 5.40569 17.6803 5.51694C17.6343 5.62819 17.5668 5.72929 17.4817 5.81446L15.5374 7.75871C15.3655 7.93056 15.1324 8.02709 14.8893 8.02709C14.6463 8.02709 14.4132 7.93056 14.2413 7.75871Z" fill="url(#paint0_linear_1_681)"/>
</g>
<defs>
<linearGradient id="paint0_linear_1_681" x1="10.9999" y1="1.83337" x2="10.9999" y2="20.1667" gradientUnits="userSpaceOnUse">
<stop stop-color="#BD2BF2"/>
<stop offset="1" stop-color="#8B5CF6"/>
</linearGradient>
<clipPath id="clip0_1_681">
<rect width="22" height="22" fill="white"/>
</clipPath>
</defs>
</svg>
