<svg width="38" height="38" viewBox="0 0 38 38" fill="none" xmlns="http://www.w3.org/2000/svg">
<rect width="38" height="38" rx="12" fill="#F2F2F2"/>
<g clip-path="url(#clip0_1_241)">
<path d="M22.3333 15.6666C22.9964 15.6666 23.6323 15.93 24.1011 16.3989C24.5699 16.8677 24.8333 17.5036 24.8333 18.1666V24.8333C24.8333 25.4963 24.5699 26.1322 24.1011 26.6011C23.6323 27.0699 22.9964 27.3333 22.3333 27.3333H14.8333C14.1703 27.3333 13.5344 27.0699 13.0656 26.6011C12.5967 26.1322 12.3333 25.4963 12.3333 24.8333V18.1666C12.3333 17.5036 12.5967 16.8677 13.0656 16.3989C13.5344 15.93 14.1703 15.6666 14.8333 15.6666V14.4166C14.8333 12.3333 16.5 10.6666 18.5833 10.6666C20.6667 10.6666 22.3333 12.3333 22.3333 14.4166V15.6666ZM14.8333 16.5C14.3913 16.5 13.9674 16.6756 13.6548 16.9881C13.3423 17.3007 13.1667 17.7246 13.1667 18.1666V24.8333C13.1667 25.2753 13.3423 25.6992 13.6548 26.0118C13.9674 26.3244 14.3913 26.5 14.8333 26.5H22.3333C22.7754 26.5 23.1993 26.3244 23.5118 26.0118C23.8244 25.6992 24 25.2753 24 24.8333V18.1666C24 17.7246 23.8244 17.3007 23.5118 16.9881C23.1993 16.6756 22.7754 16.5 22.3333 16.5H14.8333ZM21.5 15.6666V14.4166C21.5 13.6431 21.1927 12.9012 20.6457 12.3542C20.0987 11.8073 19.3569 11.5 18.5833 11.5C17.8098 11.5 17.0679 11.8073 16.5209 12.3542C15.974 12.9012 15.6667 13.6431 15.6667 14.4166V15.6666H21.5ZM18.5833 20.6666C18.2518 20.6666 17.9339 20.7983 17.6994 21.0327C17.465 21.2672 17.3333 21.5851 17.3333 21.9166C17.3333 22.2481 17.465 22.5661 17.6994 22.8005C17.9339 23.0349 18.2518 23.1666 18.5833 23.1666C18.9148 23.1666 19.2328 23.0349 19.4672 22.8005C19.7016 22.5661 19.8333 22.2481 19.8333 21.9166C19.8333 21.5851 19.7016 21.2672 19.4672 21.0327C19.2328 20.7983 18.9148 20.6666 18.5833 20.6666ZM18.5833 19.8333C19.1359 19.8333 19.6658 20.0528 20.0565 20.4435C20.4472 20.8342 20.6667 21.3641 20.6667 21.9166C20.6667 22.4692 20.4472 22.9991 20.0565 23.3898C19.6658 23.7805 19.1359 24 18.5833 24C18.0308 24 17.5009 23.7805 17.1102 23.3898C16.7195 22.9991 16.5 22.4692 16.5 21.9166C16.5 21.3641 16.7195 20.8342 17.1102 20.4435C17.5009 20.0528 18.0308 19.8333 18.5833 19.8333Z" fill="black"/>
</g>
<defs>
<clipPath id="clip0_1_241">
<rect width="20" height="20" fill="white" transform="translate(9 9)"/>
</clipPath>
</defs>
</svg>
