<svg width="12" height="16" viewBox="0 0 12 16" fill="none" xmlns="http://www.w3.org/2000/svg">
<path d="M5.385 12.385H6.615V9.885H9.115V8.655H6.615V6.155H5.385V8.655H2.885V9.885H5.385V12.385ZM1.615 15.77C1.171 15.77 0.791 15.6117 0.475 15.295C0.159 14.9783 0.000666667 14.5983 0 14.155V4.385C0 3.941 0.158333 3.561 0.475 3.245C0.791 2.92767 1.171 2.769 1.615 2.769H10.385C10.829 2.769 11.209 2.92733 11.525 3.244C11.8417 3.56067 12 3.941 12 4.385V14.155C12 14.599 11.8417 14.979 11.525 15.295C11.2083 15.611 10.8283 15.7693 10.385 15.77H1.615ZM1.615 14.77H10.385C10.5383 14.77 10.6793 14.7057 10.808 14.577C10.9367 14.4483 11.0007 14.3077 11 14.155V4.385C11 4.23167 10.936 4.09067 10.808 3.962C10.6793 3.834 10.538 3.77 10.384 3.77H1.616C1.462 3.77 1.32067 3.834 1.192 3.962C1.06333 4.09 0.999333 4.231 1 4.385V14.155C1 14.3083 1.064 14.449 1.192 14.577C1.32 14.705 1.461 14.7693 1.615 14.77ZM0.462 1V0H11.54V1H0.462Z" fill="black"/>
</svg>
