<svg width="21" height="21" viewBox="0 0 21 21" fill="none" xmlns="http://www.w3.org/2000/svg">

<path d="M18.75 9.75C18.75 7.96971 18.222 6.22942 17.2328 4.74925C16.2436 3.26907 14.8377 2.11553 13.1928 1.43451C11.5479 0.753502 9.73798 0.575622 7.99198 0.923376C6.24599 1.27113 4.64235 2.12889 3.38392 3.38817C2.12549 4.64744 1.26879 6.25165 0.922206 7.99787C0.575616 9.74409 0.754703 11.5539 1.43681 13.1983C2.11892 14.8427 3.27341 16.2479 4.75424 17.2361C6.23507 18.2244 7.97572 18.7512 9.756 18.75M6.75 7.75H6.76M12.75 7.75H12.76" stroke="currentColor" stroke-width="1.5" stroke-linecap="round" stroke-linejoin="round"/>

<path d="M7.25 12.75C7.57588 13.0826 7.96485 13.3468 8.39413 13.5272C8.82341 13.7076 9.28436 13.8005 9.75 13.8005C10.2156 13.8005 10.6766 13.7076 11.1059 13.5272C11.5352 13.3468 11.9241 13.0826 12.25 12.75M16.75 20.25C16.9553 19.4013 17.3906 18.6255 18.0081 18.0081C18.6255 17.3906 19.4013 16.9553 20.25 16.75C19.4013 16.5447 18.6255 16.1094 18.0081 15.4919C17.3906 14.8745 16.9553 14.0987 16.75 13.25C16.5447 14.0987 16.1094 14.8745 15.4919 15.4919C14.8745 16.1094 14.0987 16.5447 13.25 16.75C14.0987 16.9553 14.8745 17.3906 15.4919 18.0081C16.1094 18.6255 16.5447 19.4013 16.75 20.25Z" stroke="currentColor" stroke-width="1.5" stroke-linecap="round" stroke-linejoin="round"/>

</svg>