<svg width="82" height="15" viewBox="0 0 82 15" fill="none" xmlns="http://www.w3.org/2000/svg">
<path d="M9.594 11.43H5.382L3.384 3.168L1.62 11.43H0L2.43 -5.96046e-07H6.732L8.622 8.37L10.404 -5.96046e-07H12.06L9.594 11.43ZM15.4025 7.812C15.3545 8.076 15.3185 8.328 15.2945 8.568C15.2825 8.808 15.2765 9.024 15.2765 9.216C15.2765 9.324 15.2825 9.444 15.2945 9.576C15.3065 9.708 15.3305 9.834 15.3665 9.954C15.4145 10.062 15.4745 10.158 15.5465 10.242C15.6305 10.314 15.7445 10.35 15.8885 10.35C15.9965 10.35 16.1165 10.314 16.2485 10.242C16.3925 10.17 16.5305 10.068 16.6625 9.936C16.8065 9.804 16.9385 9.642 17.0585 9.45C17.1905 9.258 17.2925 9.042 17.3645 8.802H20.3165L19.8485 10.728C19.6085 10.884 19.3325 11.016 19.0205 11.124C18.7085 11.232 18.3785 11.322 18.0305 11.394C17.6825 11.454 17.3285 11.496 16.9685 11.52C16.6085 11.556 16.2665 11.574 15.9425 11.574C15.3425 11.574 14.7845 11.52 14.2685 11.412C13.7525 11.304 13.3025 11.118 12.9185 10.854C12.5345 10.59 12.2285 10.242 12.0005 9.81C11.7845 9.366 11.6765 8.82 11.6765 8.172C11.6765 7.584 11.7665 7.008 11.9465 6.444C12.1385 5.88 12.4505 5.382 12.8825 4.95C13.3265 4.506 13.9145 4.152 14.6465 3.888C15.3905 3.624 16.3145 3.492 17.4185 3.492C18.6185 3.492 19.5185 3.678 20.1185 4.05C20.7305 4.422 21.0365 5.004 21.0365 5.796C21.0365 6.12 20.9885 6.474 20.8925 6.858C20.7965 7.23 20.6525 7.548 20.4605 7.812H15.4025ZM17.7965 5.67C17.7965 5.298 17.7365 5.046 17.6165 4.914C17.4965 4.782 17.3525 4.716 17.1845 4.716C16.9925 4.716 16.8125 4.782 16.6445 4.914C16.4885 5.034 16.3445 5.202 16.2125 5.418C16.0805 5.622 15.9605 5.862 15.8525 6.138C15.7445 6.402 15.6545 6.684 15.5825 6.984H17.6345C17.6585 6.84 17.6825 6.69 17.7065 6.534C17.7305 6.402 17.7485 6.258 17.7605 6.102C17.7845 5.946 17.7965 5.802 17.7965 5.67ZM28.0363 3.69H31.7083L30.0523 11.43H27.1363L26.8123 10.278H26.7043C26.3923 10.65 25.9663 10.962 25.4263 11.214C24.8983 11.454 24.3643 11.574 23.8243 11.574C23.1043 11.574 22.5403 11.394 22.1323 11.034C21.7243 10.662 21.5203 10.182 21.5203 9.594C21.5203 9.294 21.5683 8.922 21.6643 8.478C21.7723 8.022 21.8683 7.596 21.9523 7.2L22.7083 3.69H26.3623L25.4623 7.902C25.4383 7.998 25.4143 8.112 25.3903 8.244C25.3663 8.376 25.3423 8.508 25.3183 8.64C25.2943 8.76 25.2703 8.88 25.2463 9C25.2343 9.108 25.2283 9.198 25.2283 9.27C25.2283 9.45 25.2643 9.606 25.3363 9.738C25.4203 9.858 25.5643 9.918 25.7683 9.918C25.9843 9.918 26.1883 9.846 26.3803 9.702C26.5723 9.558 26.7223 9.42 26.8303 9.288L28.0363 3.69ZM33.3096 3.69H36.2436L36.5136 5.04H36.6396C36.9156 4.608 37.2696 4.242 37.7016 3.942C38.1336 3.642 38.7036 3.492 39.4116 3.492C39.4596 3.492 39.5316 3.498 39.6276 3.51C39.7356 3.51 39.8496 3.528 39.9696 3.564C40.1016 3.588 40.2336 3.63 40.3656 3.69C40.5096 3.738 40.6476 3.81 40.7796 3.906L39.9876 7.614H38.0256C38.0016 6.87 37.9356 6.354 37.8276 6.066C37.7196 5.766 37.5456 5.616 37.3056 5.616C37.1856 5.616 37.0536 5.646 36.9096 5.706C36.7776 5.754 36.6396 5.868 36.4956 6.048L35.3436 11.43H31.6716L33.3096 3.69ZM46.2227 3.492C47.6507 3.492 48.6887 3.744 49.3367 4.248C50.0207 4.776 50.3627 5.652 50.3627 6.876C50.3627 7.632 50.2367 8.316 49.9847 8.928C49.7327 9.528 49.3787 10.026 48.9227 10.422C48.0107 11.19 46.6907 11.574 44.9627 11.574C43.4867 11.574 42.4307 11.292 41.7947 10.728C41.1107 10.14 40.7687 9.258 40.7687 8.082C40.7687 7.302 40.9247 6.594 41.2367 5.958C41.5607 5.322 42.0227 4.794 42.6227 4.374C43.4987 3.786 44.6987 3.492 46.2227 3.492ZM44.9987 10.35C45.2987 10.35 45.5567 10.182 45.7727 9.846C46.0007 9.51 46.1807 9.102 46.3127 8.622C46.4447 8.13 46.5407 7.626 46.6007 7.11C46.6727 6.582 46.7087 6.126 46.7087 5.742C46.7087 5.406 46.6727 5.154 46.6007 4.986C46.5407 4.806 46.4027 4.716 46.1867 4.716C45.8627 4.716 45.5807 4.89 45.3407 5.238C45.1127 5.586 44.9267 6 44.7827 6.48C44.6387 6.96 44.5307 7.452 44.4587 7.956C44.3987 8.46 44.3687 8.868 44.3687 9.18C44.3687 9.96 44.5787 10.35 44.9987 10.35ZM53.7503 14.454H50.0782L52.3463 3.69H55.2803L55.6043 4.842H55.7123C56.1443 4.386 56.6243 4.062 57.1523 3.87C57.6923 3.666 58.2203 3.564 58.7363 3.564C59.1563 3.564 59.5043 3.63 59.7803 3.762C60.0683 3.882 60.2963 4.05 60.4643 4.266C60.6323 4.482 60.7523 4.74 60.8242 5.04C60.8963 5.34 60.9323 5.658 60.9323 5.994C60.9323 6.162 60.9203 6.414 60.8963 6.75C60.8723 7.086 60.8183 7.464 60.7343 7.884C60.6503 8.292 60.5303 8.718 60.3743 9.162C60.2183 9.594 60.0083 9.99 59.7443 10.35C59.4923 10.71 59.1683 11.004 58.7723 11.232C58.3883 11.46 57.9263 11.574 57.3863 11.574C57.0863 11.574 56.7923 11.538 56.5043 11.466C56.2283 11.394 55.9763 11.298 55.7483 11.178C55.5203 11.058 55.3163 10.92 55.1363 10.764C54.9683 10.596 54.8423 10.428 54.7583 10.26H54.6503L53.7503 14.454ZM55.6582 9.828C55.9463 9.828 56.1863 9.678 56.3783 9.378C56.5703 9.066 56.7263 8.706 56.8463 8.298C56.9663 7.878 57.0503 7.464 57.0983 7.056C57.1583 6.636 57.1883 6.324 57.1883 6.12C57.1883 5.88 57.1463 5.682 57.0623 5.526C56.9903 5.37 56.8523 5.292 56.6483 5.292C56.4203 5.292 56.2043 5.376 56.0003 5.544C55.7963 5.7 55.6463 5.838 55.5503 5.958L54.8483 9.252C54.9443 9.384 55.0583 9.516 55.1903 9.648C55.3223 9.768 55.4783 9.828 55.6582 9.828ZM65.342 7.812C65.294 8.076 65.258 8.328 65.234 8.568C65.222 8.808 65.216 9.024 65.216 9.216C65.216 9.324 65.222 9.444 65.234 9.576C65.246 9.708 65.27 9.834 65.306 9.954C65.354 10.062 65.414 10.158 65.486 10.242C65.57 10.314 65.684 10.35 65.828 10.35C65.936 10.35 66.056 10.314 66.188 10.242C66.332 10.17 66.47 10.068 66.602 9.936C66.746 9.804 66.878 9.642 66.998 9.45C67.13 9.258 67.232 9.042 67.304 8.802H70.256L69.788 10.728C69.548 10.884 69.272 11.016 68.96 11.124C68.648 11.232 68.318 11.322 67.97 11.394C67.622 11.454 67.268 11.496 66.908 11.52C66.548 11.556 66.206 11.574 65.882 11.574C65.282 11.574 64.724 11.52 64.208 11.412C63.692 11.304 63.242 11.118 62.858 10.854C62.474 10.59 62.168 10.242 61.94 9.81C61.724 9.366 61.616 8.82 61.616 8.172C61.616 7.584 61.706 7.008 61.886 6.444C62.078 5.88 62.39 5.382 62.822 4.95C63.266 4.506 63.854 4.152 64.586 3.888C65.33 3.624 66.254 3.492 67.358 3.492C68.558 3.492 69.458 3.678 70.058 4.05C70.67 4.422 70.976 5.004 70.976 5.796C70.976 6.12 70.928 6.474 70.832 6.858C70.736 7.23 70.592 7.548 70.4 7.812H65.342ZM67.736 5.67C67.736 5.298 67.676 5.046 67.556 4.914C67.436 4.782 67.292 4.716 67.124 4.716C66.932 4.716 66.752 4.782 66.584 4.914C66.428 5.034 66.284 5.202 66.152 5.418C66.02 5.622 65.9 5.862 65.792 6.138C65.684 6.402 65.594 6.684 65.522 6.984H67.574C67.598 6.84 67.622 6.69 67.646 6.534C67.67 6.402 67.688 6.258 67.7 6.102C67.724 5.946 67.736 5.802 67.736 5.67ZM74.1057 14.454H70.4337L72.7017 3.69H75.6357L75.9597 4.842H76.0677C76.4997 4.386 76.9797 4.062 77.5077 3.87C78.0477 3.666 78.5757 3.564 79.0917 3.564C79.5117 3.564 79.8597 3.63 80.1357 3.762C80.4237 3.882 80.6517 4.05 80.8197 4.266C80.9877 4.482 81.1077 4.74 81.1797 5.04C81.2517 5.34 81.2877 5.658 81.2877 5.994C81.2877 6.162 81.2757 6.414 81.2517 6.75C81.2277 7.086 81.1737 7.464 81.0897 7.884C81.0057 8.292 80.8857 8.718 80.7297 9.162C80.5737 9.594 80.3637 9.99 80.0997 10.35C79.8477 10.71 79.5237 11.004 79.1277 11.232C78.7437 11.46 78.2817 11.574 77.7417 11.574C77.4417 11.574 77.1477 11.538 76.8597 11.466C76.5837 11.394 76.3317 11.298 76.1037 11.178C75.8757 11.058 75.6717 10.92 75.4917 10.764C75.3237 10.596 75.1977 10.428 75.1137 10.26H75.0057L74.1057 14.454ZM76.0137 9.828C76.3017 9.828 76.5417 9.678 76.7337 9.378C76.9257 9.066 77.0817 8.706 77.2017 8.298C77.3217 7.878 77.4057 7.464 77.4537 7.056C77.5137 6.636 77.5437 6.324 77.5437 6.12C77.5437 5.88 77.5017 5.682 77.4177 5.526C77.3457 5.37 77.2077 5.292 77.0037 5.292C76.7757 5.292 76.5597 5.376 76.3557 5.544C76.1517 5.7 76.0017 5.838 75.9057 5.958L75.2037 9.252C75.2997 9.384 75.4137 9.516 75.5457 9.648C75.6777 9.768 75.8337 9.828 76.0137 9.828Z" fill="url(#paint0_linear_1_12)"/>
<defs>
<linearGradient id="paint0_linear_1_12" x1="-0.113281" y1="4.93" x2="81.8867" y2="4.93" gradientUnits="userSpaceOnUse">
<stop stop-color="#BD2BF2"/>
<stop offset="1" stop-color="#8B5CF6"/>
</linearGradient>
</defs>
</svg>
