<svg width="67" height="67" viewBox="0 0 67 67" fill="none" xmlns="http://www.w3.org/2000/svg">
<g filter="url(#filter0_d_1_270)">
<rect x="8.5" y="6.5" width="50" height="50" rx="12" fill="white"/>
<rect x="8.5" y="6.5" width="50" height="50" rx="12" stroke="#8B5CF6"/>
<g clip-path="url(#clip0_1_270)">
<path d="M32.5 39.5C32.5 39.7652 32.6054 40.0196 32.7929 40.2071C32.9804 40.3946 33.2348 40.5 33.5 40.5C33.7652 40.5 34.0196 40.3946 34.2071 40.2071C34.3946 40.0196 34.5 39.7652 34.5 39.5V32.5H41.5C41.7652 32.5 42.0196 32.3946 42.2071 32.2071C42.3946 32.0196 42.5 31.7652 42.5 31.5C42.5 31.2348 42.3946 30.9804 42.2071 30.7929C42.0196 30.6054 41.7652 30.5 41.5 30.5H34.5V23.5C34.5 23.2348 34.3946 22.9804 34.2071 22.7929C34.0196 22.6054 33.7652 22.5 33.5 22.5C33.2348 22.5 32.9804 22.6054 32.7929 22.7929C32.6054 22.9804 32.5 23.2348 32.5 23.5V30.5H25.5C25.2348 30.5 24.9804 30.6054 24.7929 30.7929C24.6054 30.9804 24.5 31.2348 24.5 31.5C24.5 31.7652 24.6054 32.0196 24.7929 32.2071C24.9804 32.3946 25.2348 32.5 25.5 32.5H32.5V39.5Z" fill="currentColor"/>
</g>
</g>
<defs>
<filter id="filter0_d_1_270" x="0" y="0" width="67" height="67" filterUnits="userSpaceOnUse" color-interpolation-filters="sRGB">
<feFlood flood-opacity="0" result="BackgroundImageFix"/>
<feColorMatrix in="SourceAlpha" type="matrix" values="0 0 0 0 0 0 0 0 0 0 0 0 0 0 0 0 0 0 127 0" result="hardAlpha"/>
<feOffset dy="2"/>
<feGaussianBlur stdDeviation="4"/>
<feColorMatrix type="matrix" values="0 0 0 0 0.388235 0 0 0 0 0.388235 0 0 0 0 0.388235 0 0 0 0.2 0"/>
<feBlend mode="normal" in2="BackgroundImageFix" result="effect1_dropShadow_1_270"/>
<feBlend mode="normal" in="SourceGraphic" in2="effect1_dropShadow_1_270" result="shape"/>
</filter>
<clipPath id="clip0_1_270">
<rect width="24" height="24" fill="white" transform="translate(21.5 19.5)"/>
</clipPath>
</defs>
</svg>
