<svg width="20" height="20" viewBox="0 0 20 20" fill="none" xmlns="http://www.w3.org/2000/svg">

<path d="M11.2292 6.1875H13.9792L11.2292 8.9375H13.9792M15.3542 0.6875H19.0209L15.3542 4.35417H19.0209" stroke="currentColor" stroke-width="0.75" stroke-linecap="round" stroke-linejoin="round"/>

<path d="M18.3333 9.85417C18.3333 12.103 17.44 14.2597 15.8498 15.8498C14.2597 17.44 12.103 18.3333 9.85417 18.3333V19.7083C15.2964 19.7083 19.7083 15.2964 19.7083 9.85417H18.3333ZM9.85417 18.3333C7.60535 18.3333 5.44864 17.44 3.85849 15.8498C2.26834 14.2597 1.375 12.103 1.375 9.85417H0C0 15.2964 4.41192 19.7083 9.85417 19.7083V18.3333ZM1.375 9.85417C1.375 7.60535 2.26834 5.44864 3.85849 3.85849C5.44864 2.26834 7.60535 1.375 9.85417 1.375V0C4.41192 0 0 4.41192 0 9.85417H1.375ZM13.0625 11.9167C11.6646 11.9167 10.3239 11.3613 9.33546 10.3729C8.34699 9.3844 7.79167 8.04375 7.79167 6.64583H6.41667C6.41667 8.40842 7.11685 10.0988 8.36319 11.3451C9.60952 12.5915 11.2999 13.2917 13.0625 13.2917V11.9167ZM17.5771 9.36742C17.108 10.1453 16.4459 10.7888 15.6549 11.2355C14.8639 11.6822 13.9709 11.9168 13.0625 11.9167V13.2917C14.2078 13.292 15.3337 12.9964 16.3311 12.4334C17.3284 11.8705 18.1634 11.0594 18.755 10.0787L17.5771 9.36742ZM7.79167 6.64583C7.79154 5.73744 8.02618 4.84443 8.47283 4.05343C8.91949 3.26243 9.56299 2.6003 10.3409 2.13125L9.62958 0.95425C8.64907 1.54576 7.83804 2.38059 7.27511 3.37779C6.71219 4.37499 6.41649 5.50072 6.41667 6.64583H7.79167ZM9.85417 1.375C9.8081 1.37411 9.76267 1.3641 9.7205 1.34553C9.67833 1.32696 9.64026 1.30021 9.6085 1.26683C9.56985 1.22802 9.54368 1.17854 9.53333 1.12475C9.52967 1.09633 9.5315 1.01383 9.62958 0.95425L10.3409 2.13125C10.802 1.85258 10.9505 1.342 10.8964 0.9405C10.8396 0.523417 10.5114 0 9.85417 0V1.375ZM18.755 10.0787C18.6945 10.1768 18.612 10.1787 18.5836 10.175C18.5298 10.1647 18.4803 10.1385 18.4415 10.0998C18.4081 10.0681 18.3814 10.03 18.3628 9.98784C18.3442 9.94567 18.3342 9.90023 18.3333 9.85417H19.7083C19.7083 9.19692 19.1849 8.86875 18.7678 8.81192C18.3663 8.75783 17.8557 8.90633 17.5771 9.36742L18.755 10.0787Z" fill="currentColor"/>

</svg>