<svg width="22" height="22" viewBox="0 0 22 22" fill="none" xmlns="http://www.w3.org/2000/svg">
<g clip-path="url(#clip0_2_1024)">
<path d="M19.2363 11.484C19.3345 9.81365 18.9224 8.15294 18.0549 6.72221C17.1873 5.29148 15.9052 4.15837 14.3787 3.47323C12.8521 2.78809 11.1534 2.5833 9.50778 2.88605C7.86217 3.18879 6.34752 3.98476 5.16479 5.16832C3.98207 6.35189 3.18718 7.86711 2.8856 9.51293C2.58403 11.1587 2.79002 12.8574 3.47624 14.3834C4.16247 15.9094 5.29649 17.1907 6.72783 18.0573C8.15917 18.9238 9.82018 19.3347 11.4904 19.2353M14.6667 17.4167H20.1667M17.4167 14.6667V20.1667M8.25003 9.16666H8.25919M13.75 9.16666H13.7592" stroke="black" stroke-width="1.5" stroke-linecap="round" stroke-linejoin="round"/>
<path d="M8.70825 13.75C9.31142 14.3367 10.1383 14.6667 10.9999 14.6667C11.8616 14.6667 12.6884 14.3367 13.2916 13.75" stroke="black" stroke-width="1.5" stroke-linecap="round" stroke-linejoin="round"/>
</g>
<defs>
<clipPath id="clip0_2_1024">
<rect width="22" height="22" fill="white"/>
</clipPath>
</defs>
</svg>
