<svg width="201" height="72" viewBox="0 0 201 72" fill="none" xmlns="http://www.w3.org/2000/svg">
<g filter="url(#filter0_d_2_845)">
<rect x="10.5601" y="7.92004" width="179" height="50" rx="15.84" fill="url(#paint0_linear_2_845)"/>
<g clip-path="url(#clip0_2_845)">
<path d="M34.3995 23.9083C34.966 22.9981 36.3753 23.0641 36.8222 24.1022L38.8118 28.7249C38.8654 28.8493 38.8939 28.9831 38.8957 29.1185C38.8976 29.2539 38.8727 29.3884 38.8226 29.5142C38.7725 29.6401 38.6981 29.7548 38.6037 29.8519C38.5092 29.9489 38.3965 30.0265 38.2721 30.08C38.1477 30.1335 38.014 30.162 37.8786 30.1639C37.7431 30.1658 37.6087 30.1409 37.4828 30.0908C37.357 30.0407 37.2423 29.9663 37.1452 29.8718C37.0481 29.7774 36.9706 29.6647 36.9171 29.5403L35.5586 26.3847L34.0282 29.9473C33.7505 30.5936 33.2335 31.1106 32.5872 31.3883L29.026 32.9187L32.5872 34.4518C33.2335 34.7309 33.7505 35.2452 34.0282 35.8914L35.5586 39.4527L37.3626 35.2617L37.8163 34.1906C38.1067 33.5076 38.5917 32.9251 39.2107 32.5158C39.8298 32.1065 40.5557 31.8885 41.2978 31.8888H42.6123L41.2786 30.5551C41.0908 30.3605 40.987 30.0999 40.9895 29.8295C40.9919 29.5592 41.1005 29.3006 41.2918 29.1094C41.4831 28.9183 41.7418 28.81 42.0122 28.8078C42.2826 28.8056 42.543 28.9096 42.7375 29.0976L46.56 32.9201L42.7375 36.7426C42.542 36.9247 42.2834 37.0239 42.0162 37.0192C41.7491 37.0145 41.4942 36.9062 41.3052 36.7173C41.1163 36.5284 41.008 36.2734 41.0033 36.0063C40.9986 35.7391 41.0978 35.4806 41.28 35.2851L42.6137 33.9513H41.2978C40.609 33.9513 39.9861 34.3638 39.7166 34.9977L39.2587 36.0729L39.2573 36.0771L36.8236 41.7366C36.3451 42.8462 34.7748 42.8462 34.2963 41.7366L32.1335 36.7068C32.0639 36.545 31.935 36.4161 31.7732 36.3466L26.7421 34.1823C25.6338 33.7052 25.6338 32.1336 26.7421 31.6564L31.7746 29.4936C31.9358 29.4238 32.0643 29.2948 32.1335 29.1333L34.2963 24.1022L34.3995 23.9083Z" fill="white"/>
</g>
<path d="M58.8981 27.995V29.39H56.1231V38.42H54.4131V29.39H51.6231V27.995H58.8981ZM67.9499 34.085C67.9499 34.395 67.9299 34.675 67.8899 34.925H61.5749C61.6249 35.585 61.8699 36.115 62.3099 36.515C62.7499 36.915 63.2899 37.115 63.9299 37.115C64.8499 37.115 65.4999 36.73 65.8799 35.96H67.7249C67.4749 36.72 67.0199 37.345 66.3599 37.835C65.7099 38.315 64.8999 38.555 63.9299 38.555C63.1399 38.555 62.4299 38.38 61.7999 38.03C61.1799 37.67 60.6899 37.17 60.3299 36.53C59.9799 35.88 59.8049 35.13 59.8049 34.28C59.8049 33.43 59.9749 32.685 60.3149 32.045C60.6649 31.395 61.1499 30.895 61.7699 30.545C62.3999 30.195 63.1199 30.02 63.9299 30.02C64.7099 30.02 65.4049 30.19 66.0149 30.53C66.6249 30.87 67.0999 31.35 67.4399 31.97C67.7799 32.58 67.9499 33.285 67.9499 34.085ZM66.1649 33.545C66.1549 32.915 65.9299 32.41 65.4899 32.03C65.0499 31.65 64.5049 31.46 63.8549 31.46C63.2649 31.46 62.7599 31.65 62.3399 32.03C61.9199 32.4 61.6699 32.905 61.5899 33.545H66.1649ZM71.0877 27.32V38.42H69.3777V27.32H71.0877ZM74.7878 27.32V38.42H73.0778V27.32H74.7878ZM86.7044 36.29H82.3394L81.5894 38.42H79.8044L83.5394 27.98H85.5194L89.2544 38.42H87.4544L86.7044 36.29ZM86.2244 34.895L84.5294 30.05L82.8194 34.895H86.2244ZM92.3333 27.995V38.42H90.6233V27.995H92.3333ZM109.065 30.155L106.5 38.42H104.7L103.035 32.315L101.37 38.42H99.5699L96.9899 30.155H98.7299L100.455 36.8L102.21 30.155H103.995L105.675 36.77L107.385 30.155H109.065ZM114.363 30.02C114.993 30.02 115.553 30.155 116.043 30.425C116.543 30.695 116.933 31.095 117.213 31.625C117.503 32.155 117.648 32.795 117.648 33.545V38.42H115.953V33.8C115.953 33.06 115.768 32.495 115.398 32.105C115.028 31.705 114.523 31.505 113.883 31.505C113.243 31.505 112.733 31.705 112.353 32.105C111.983 32.495 111.798 33.06 111.798 33.8V38.42H110.088V27.32H111.798V31.115C112.088 30.765 112.453 30.495 112.893 30.305C113.343 30.115 113.833 30.02 114.363 30.02ZM119.004 34.25C119.004 33.42 119.174 32.685 119.514 32.045C119.864 31.405 120.334 30.91 120.924 30.56C121.524 30.2 122.184 30.02 122.904 30.02C123.554 30.02 124.119 30.15 124.599 30.41C125.089 30.66 125.479 30.975 125.769 31.355V30.155H127.494V38.42H125.769V37.19C125.479 37.58 125.084 37.905 124.584 38.165C124.084 38.425 123.514 38.555 122.874 38.555C122.164 38.555 121.514 38.375 120.924 38.015C120.334 37.645 119.864 37.135 119.514 36.485C119.174 35.825 119.004 35.08 119.004 34.25ZM125.769 34.28C125.769 33.71 125.649 33.215 125.409 32.795C125.179 32.375 124.874 32.055 124.494 31.835C124.114 31.615 123.704 31.505 123.264 31.505C122.824 31.505 122.414 31.615 122.034 31.835C121.654 32.045 121.344 32.36 121.104 32.78C120.874 33.19 120.759 33.68 120.759 34.25C120.759 34.82 120.874 35.32 121.104 35.75C121.344 36.18 121.654 36.51 122.034 36.74C122.424 36.96 122.834 37.07 123.264 37.07C123.704 37.07 124.114 36.96 124.494 36.74C124.874 36.52 125.179 36.2 125.409 35.78C125.649 35.35 125.769 34.85 125.769 34.28ZM131.48 31.55V36.125C131.48 36.435 131.55 36.66 131.69 36.8C131.84 36.93 132.09 36.995 132.44 36.995H133.49V38.42H132.14C131.37 38.42 130.78 38.24 130.37 37.88C129.96 37.52 129.755 36.935 129.755 36.125V31.55H128.78V30.155H129.755V28.1H131.48V30.155H133.49V31.55H131.48ZM140.448 31.55V36.125C140.448 36.435 140.518 36.66 140.658 36.8C140.808 36.93 141.058 36.995 141.408 36.995H142.458V38.42H141.108C140.338 38.42 139.748 38.24 139.338 37.88C138.928 37.52 138.723 36.935 138.723 36.125V31.55H137.748V30.155H138.723V28.1H140.448V30.155H142.458V31.55H140.448ZM147.364 38.555C146.584 38.555 145.879 38.38 145.249 38.03C144.619 37.67 144.124 37.17 143.764 36.53C143.404 35.88 143.224 35.13 143.224 34.28C143.224 33.44 143.409 32.695 143.779 32.045C144.149 31.395 144.654 30.895 145.294 30.545C145.934 30.195 146.649 30.02 147.439 30.02C148.229 30.02 148.944 30.195 149.584 30.545C150.224 30.895 150.729 31.395 151.099 32.045C151.469 32.695 151.654 33.44 151.654 34.28C151.654 35.12 151.464 35.865 151.084 36.515C150.704 37.165 150.184 37.67 149.524 38.03C148.874 38.38 148.154 38.555 147.364 38.555ZM147.364 37.07C147.804 37.07 148.214 36.965 148.594 36.755C148.984 36.545 149.299 36.23 149.539 35.81C149.779 35.39 149.899 34.88 149.899 34.28C149.899 33.68 149.784 33.175 149.554 32.765C149.324 32.345 149.019 32.03 148.639 31.82C148.259 31.61 147.849 31.505 147.409 31.505C146.969 31.505 146.559 31.61 146.179 31.82C145.809 32.03 145.514 32.345 145.294 32.765C145.074 33.175 144.964 33.68 144.964 34.28C144.964 35.17 145.189 35.86 145.639 36.35C146.099 36.83 146.674 37.07 147.364 37.07ZM156.161 34.25C156.161 33.42 156.331 32.685 156.671 32.045C157.021 31.405 157.491 30.91 158.081 30.56C158.681 30.2 159.346 30.02 160.076 30.02C160.616 30.02 161.146 30.14 161.666 30.38C162.196 30.61 162.616 30.92 162.926 31.31V27.32H164.651V38.42H162.926V37.175C162.646 37.575 162.256 37.905 161.756 38.165C161.266 38.425 160.701 38.555 160.061 38.555C159.341 38.555 158.681 38.375 158.081 38.015C157.491 37.645 157.021 37.135 156.671 36.485C156.331 35.825 156.161 35.08 156.161 34.25ZM162.926 34.28C162.926 33.71 162.806 33.215 162.566 32.795C162.336 32.375 162.031 32.055 161.651 31.835C161.271 31.615 160.861 31.505 160.421 31.505C159.981 31.505 159.571 31.615 159.191 31.835C158.811 32.045 158.501 32.36 158.261 32.78C158.031 33.19 157.916 33.68 157.916 34.25C157.916 34.82 158.031 35.32 158.261 35.75C158.501 36.18 158.811 36.51 159.191 36.74C159.581 36.96 159.991 37.07 160.421 37.07C160.861 37.07 161.271 36.96 161.651 36.74C162.031 36.52 162.336 36.2 162.566 35.78C162.806 35.35 162.926 34.85 162.926 34.28ZM170.227 38.555C169.447 38.555 168.742 38.38 168.112 38.03C167.482 37.67 166.987 37.17 166.627 36.53C166.267 35.88 166.087 35.13 166.087 34.28C166.087 33.44 166.272 32.695 166.642 32.045C167.012 31.395 167.517 30.895 168.157 30.545C168.797 30.195 169.512 30.02 170.302 30.02C171.092 30.02 171.807 30.195 172.447 30.545C173.087 30.895 173.592 31.395 173.962 32.045C174.332 32.695 174.517 33.44 174.517 34.28C174.517 35.12 174.327 35.865 173.947 36.515C173.567 37.165 173.047 37.67 172.387 38.03C171.737 38.38 171.017 38.555 170.227 38.555ZM170.227 37.07C170.667 37.07 171.077 36.965 171.457 36.755C171.847 36.545 172.162 36.23 172.402 35.81C172.642 35.39 172.762 34.88 172.762 34.28C172.762 33.68 172.647 33.175 172.417 32.765C172.187 32.345 171.882 32.03 171.502 31.82C171.122 31.61 170.712 31.505 170.272 31.505C169.832 31.505 169.422 31.61 169.042 31.82C168.672 32.03 168.377 32.345 168.157 32.765C167.937 33.175 167.827 33.68 167.827 34.28C167.827 35.17 168.052 35.86 168.502 36.35C168.962 36.83 169.537 37.07 170.227 37.07Z" fill="white"/>
</g>
<defs>
<filter id="filter0_d_2_845" x="5.81741e-05" y="4.36306e-05" width="200.12" height="71.12" filterUnits="userSpaceOnUse" color-interpolation-filters="sRGB">
<feFlood flood-opacity="0" result="BackgroundImageFix"/>
<feColorMatrix in="SourceAlpha" type="matrix" values="0 0 0 0 0 0 0 0 0 0 0 0 0 0 0 0 0 0 127 0" result="hardAlpha"/>
<feOffset dy="2.64"/>
<feGaussianBlur stdDeviation="5.28"/>
<feColorMatrix type="matrix" values="0 0 0 0 0.388235 0 0 0 0 0.388235 0 0 0 0 0.388235 0 0 0 0.2 0"/>
<feBlend mode="normal" in2="BackgroundImageFix" result="effect1_dropShadow_2_845"/>
<feBlend mode="normal" in="SourceGraphic" in2="effect1_dropShadow_2_845" result="shape"/>
</filter>
<linearGradient id="paint0_linear_2_845" x1="100.06" y1="7.92004" x2="100.06" y2="57.92" gradientUnits="userSpaceOnUse">
<stop stop-color="#BD2BF2"/>
<stop offset="1" stop-color="#8B5CF6"/>
</linearGradient>
<clipPath id="clip0_2_845">
<rect width="22" height="22" fill="white" transform="translate(24.5601 21.92)"/>
</clipPath>
</defs>
</svg>
