<svg width="22" height="22" viewBox="0 0 22 22" fill="none" xmlns="http://www.w3.org/2000/svg">
<g clip-path="url(#clip0_2_1274)">
<path d="M1.8335 11.4584C1.8335 10.9721 2.02665 10.5058 2.37047 10.162C2.71428 9.8182 3.1806 9.62505 3.66683 9.62505C4.39617 9.62505 5.09565 9.91478 5.61137 10.4305C6.1271 10.9462 6.41683 11.6457 6.41683 12.375V16.0417C6.41683 16.7711 6.1271 17.4705 5.61137 17.9863C5.09565 18.502 4.39617 18.7917 3.66683 18.7917C3.1806 18.7917 2.71428 18.5986 2.37047 18.2547C2.02665 17.9109 1.8335 17.4446 1.8335 16.9584V11.4584ZM14.1892 7.15555L13.9445 7.94388C13.7447 8.59013 13.6447 8.9128 13.7217 9.16855C13.7866 9.37605 13.923 9.55376 14.1067 9.66996C14.3368 9.8148 14.6842 9.8148 15.3809 9.8148H15.7512C18.1071 9.8148 19.285 9.8148 19.8414 10.5115C19.905 10.5915 19.9615 10.6762 20.011 10.7654C20.4391 11.5427 19.9523 12.5905 18.9788 14.686C18.086 16.6091 17.6387 17.5707 16.81 18.1363C16.7293 18.1913 16.6468 18.2432 16.5625 18.2921C15.6898 18.7917 14.6082 18.7917 12.4448 18.7917H11.9764C9.35475 18.7917 8.04483 18.7917 7.23083 18.0034C6.41683 17.2141 6.41683 15.9445 6.41683 13.4054V12.5125C6.41683 11.1788 6.41683 10.5115 6.65333 9.90005C6.89075 9.28955 7.34358 8.78813 8.25108 7.78346L12.0012 3.63096C12.0956 3.52646 12.1423 3.47513 12.1845 3.43846C12.372 3.27682 12.6154 3.19503 12.8624 3.21062C13.1095 3.22621 13.3406 3.33794 13.5063 3.52188C13.543 3.56313 13.5824 3.62088 13.6622 3.73638C13.7859 3.91605 13.8473 4.00588 13.9014 4.09571C14.3854 4.89413 14.5312 5.84288 14.3102 6.74488C14.2855 6.8448 14.2534 6.94838 14.1892 7.15555Z" stroke="black" stroke-width="1.5" stroke-linecap="round" stroke-linejoin="round"/>
</g>
<defs>
<clipPath id="clip0_2_1274">
<rect width="22" height="22" fill="white"/>
</clipPath>
</defs>
</svg>
