<svg width="33" height="33" viewBox="0 0 33 33" fill="none" xmlns="http://www.w3.org/2000/svg">
<rect width="33" height="33" rx="16.5" fill="#242424"/>
<g clip-path="url(#clip0_2_1237)">
<path fill-rule="evenodd" clip-rule="evenodd" d="M16.2499 9.08337C15.41 9.08337 14.6046 9.417 14.0107 10.0109C13.4168 10.6047 13.0832 11.4102 13.0832 12.25C13.0832 13.0899 13.4168 13.8953 14.0107 14.4892C14.6046 15.0831 15.41 15.4167 16.2499 15.4167C17.0897 15.4167 17.8952 15.0831 18.489 14.4892C19.0829 13.8953 19.4165 13.0899 19.4165 12.25C19.4165 11.4102 19.0829 10.6047 18.489 10.0109C17.8952 9.417 17.0897 9.08337 16.2499 9.08337ZM14.0832 12.25C14.0832 11.6754 14.3115 11.1243 14.7178 10.718C15.1241 10.3116 15.6752 10.0834 16.2499 10.0834C16.8245 10.0834 17.3756 10.3116 17.7819 10.718C18.1883 11.1243 18.4165 11.6754 18.4165 12.25C18.4165 12.8247 18.1883 13.3758 17.7819 13.7821C17.3756 14.1884 16.8245 14.4167 16.2499 14.4167C15.6752 14.4167 15.1241 14.1884 14.7178 13.7821C14.3115 13.3758 14.0832 12.8247 14.0832 12.25ZM16.2499 16.4167C14.7079 16.4167 13.2865 16.7674 12.2339 17.3594C11.1965 17.9434 10.4165 18.8274 10.4165 19.9167V19.9847C10.4159 20.7594 10.4152 21.7314 11.2679 22.426C11.6872 22.7674 12.2745 23.0107 13.0679 23.1707C13.8625 23.332 14.8992 23.4167 16.2499 23.4167C17.6005 23.4167 18.6365 23.332 19.4325 23.1707C20.2259 23.0107 20.8125 22.7674 21.2325 22.426C22.0852 21.7314 22.0839 20.7594 22.0832 19.9847V19.9167C22.0832 18.8274 21.3032 17.9434 20.2665 17.3594C19.2132 16.7674 17.7925 16.4167 16.2499 16.4167ZM11.4165 19.9167C11.4165 19.3494 11.8312 18.7334 12.7239 18.2314C13.6012 17.738 14.8465 17.4167 16.2505 17.4167C17.6532 17.4167 18.8985 17.738 19.7759 18.2314C20.6692 18.7334 21.0832 19.3494 21.0832 19.9167C21.0832 20.7887 21.0565 21.2794 20.6005 21.65C20.3539 21.8514 19.9405 22.048 19.2339 22.1907C18.5292 22.3334 17.5659 22.4167 16.2499 22.4167C14.9339 22.4167 13.9699 22.3334 13.2659 22.1907C12.5592 22.048 12.1459 21.8514 11.8992 21.6507C11.4432 21.2794 11.4165 20.7887 11.4165 19.9167Z" fill="white"/>
</g>
<defs>
<clipPath id="clip0_2_1237">
<rect width="16" height="16" fill="white" transform="translate(8.25 8.25)"/>
</clipPath>
</defs>
</svg>
