<svg width="20" height="20" viewBox="0 0 20 20" fill="none" xmlns="http://www.w3.org/2000/svg">

<path d="M17.4583 0.5H1.875C1.51033 0.5 1.16059 0.644866 0.902728 0.902728C0.644866 1.16059 0.5 1.51033 0.5 1.875V17.4583C0.5 17.823 0.644866 18.1727 0.902728 18.4306C1.16059 18.6885 1.51033 18.8333 1.875 18.8333H17.4583C17.823 18.8333 18.1727 18.6885 18.4306 18.4306C18.6885 18.1727 18.8333 17.823 18.8333 17.4583V1.875C18.8333 1.51033 18.6885 1.16059 18.4306 0.902728C18.1727 0.644866 17.823 0.5 17.4583 0.5Z" stroke="currentColor" stroke-linejoin="round"/>

<path d="M4.16663 7.39978C5.69043 5.56645 7.52376 4.64978 9.66663 4.64978C11.8092 4.64978 13.6425 5.56645 15.1666 7.39978" stroke="currentColor" stroke-linecap="round"/>

<path d="M9.66663 12.875C10.0313 12.875 10.381 12.7301 10.6389 12.4723C10.8968 12.2144 11.0416 11.8647 11.0416 11.5C11.0416 11.1353 10.8968 10.7856 10.6389 10.5277C10.381 10.2699 10.0313 10.125 9.66663 10.125C9.30195 10.125 8.95222 10.2699 8.69435 10.5277C8.43649 10.7856 8.29163 11.1353 8.29163 11.5C8.29163 11.8647 8.43649 12.2144 8.69435 12.4723C8.95222 12.7301 9.30195 12.875 9.66663 12.875Z" fill="currentColor"/>

<path d="M7.375 8.29163L9.67033 11.5" stroke="currentColor" stroke-linecap="round"/>

</svg>